<mxfile host="app.diagrams.net" modified="2022-06-15T03:30:38.720Z" agent="5.0 (Windows)" etag="YwJRETZfy3RjLe3fy-LB" version="20.0.1" type="github" pages="2">
  <diagram id="C5RBs43oDa-KdzZeNtuy" name="Page-1">
    <mxGraphModel dx="2585" dy="1298" grid="1" gridSize="10" guides="1" tooltips="1" connect="1" arrows="1" fold="1" page="1" pageScale="1" pageWidth="827" pageHeight="1169" math="0" shadow="0">
      <root>
        <mxCell id="WIyWlLk6GJQsqaUBKTNV-0" />
        <mxCell id="WIyWlLk6GJQsqaUBKTNV-1" parent="WIyWlLk6GJQsqaUBKTNV-0" />
        <mxCell id="pVdlfNSVQghq543598hL-3" value="变量备注" style="swimlane;" parent="WIyWlLk6GJQsqaUBKTNV-1" vertex="1">
          <mxGeometry x="660" y="30" width="280" height="200" as="geometry" />
        </mxCell>
        <mxCell id="pVdlfNSVQghq543598hL-5" value="&lt;div align=&quot;left&quot;&gt;h: 目标在相机坐标系的高度&lt;br&gt;w: 目标在相机坐标系的宽度&lt;br&gt;l：目标在相机坐标系的长度&lt;br&gt;alpha_deg： 目标在相机坐标系的航向角&lt;/div&gt;&lt;div align=&quot;left&quot;&gt;upper_left： 目标在图像中的2D box 的左上角角&lt;br&gt;lower_right：目标在图像中的2D box 的右下角点&lt;br&gt;&lt;div&gt;camera_model_：相机内参、畸变系数、图像宽高&lt;/div&gt;&lt;div&gt;box_center_pixel：图像中目标2D box的中心&lt;/div&gt;&lt;div&gt;corners：目标在相机坐标系的3D box的8个顶点&lt;/div&gt;&lt;div&gt;distance：目标到相机的距离&lt;/div&gt;&lt;div&gt;mass_center_pixel：目标在图像中的质心&lt;/div&gt;&lt;/div&gt;" style="text;html=1;align=center;verticalAlign=middle;resizable=0;points=[];autosize=1;strokeColor=none;" parent="pVdlfNSVQghq543598hL-3" vertex="1">
          <mxGeometry y="35" width="280" height="160" as="geometry" />
        </mxCell>
        <mxCell id="pVdlfNSVQghq543598hL-86" value="" style="group" parent="WIyWlLk6GJQsqaUBKTNV-1" vertex="1" connectable="0">
          <mxGeometry x="10" y="10" width="630" height="550" as="geometry" />
        </mxCell>
        <mxCell id="pVdlfNSVQghq543598hL-79" value="" style="group" parent="pVdlfNSVQghq543598hL-86" vertex="1" connectable="0">
          <mxGeometry x="10" y="20" width="570" height="510" as="geometry" />
        </mxCell>
        <mxCell id="WIyWlLk6GJQsqaUBKTNV-3" value="Deep Network" style="rounded=1;whiteSpace=wrap;html=1;fontSize=12;glass=0;strokeWidth=1;shadow=0;" parent="pVdlfNSVQghq543598hL-79" vertex="1">
          <mxGeometry x="315" width="120" height="40" as="geometry" />
        </mxCell>
        <mxCell id="pVdlfNSVQghq543598hL-13" value="&lt;div align=&quot;left&quot;&gt;h&lt;br&gt;w&lt;br&gt;l&lt;br&gt;alpha_deg&lt;/div&gt;&lt;div align=&quot;left&quot;&gt;upper_left&lt;br&gt;lower_right&lt;/div&gt;" style="rounded=0;whiteSpace=wrap;html=1;" parent="pVdlfNSVQghq543598hL-79" vertex="1">
          <mxGeometry x="315" y="70" width="120" height="90" as="geometry" />
        </mxCell>
        <mxCell id="WIyWlLk6GJQsqaUBKTNV-2" value="" style="rounded=0;html=1;jettySize=auto;orthogonalLoop=1;fontSize=11;endArrow=block;endFill=0;endSize=8;strokeWidth=1;shadow=0;labelBackgroundColor=none;edgeStyle=orthogonalEdgeStyle;entryX=0.5;entryY=0;entryDx=0;entryDy=0;" parent="pVdlfNSVQghq543598hL-79" source="WIyWlLk6GJQsqaUBKTNV-3" target="pVdlfNSVQghq543598hL-13" edge="1">
          <mxGeometry relative="1" as="geometry">
            <mxPoint x="375" y="90" as="targetPoint" />
          </mxGeometry>
        </mxCell>
        <mxCell id="pVdlfNSVQghq543598hL-20" value="&lt;div&gt;目标在图像中的高度是否有截断&lt;/div&gt;" style="rhombus;whiteSpace=wrap;html=1;align=center;" parent="pVdlfNSVQghq543598hL-79" vertex="1">
          <mxGeometry x="315" y="260" width="120" height="90" as="geometry" />
        </mxCell>
        <mxCell id="pVdlfNSVQghq543598hL-24" value="使用高度信息计算目标的物理距离distance和像素中心mass_center_pixel" style="rounded=0;whiteSpace=wrap;html=1;align=center;" parent="pVdlfNSVQghq543598hL-79" vertex="1">
          <mxGeometry x="450" y="450" width="120" height="60" as="geometry" />
        </mxCell>
        <mxCell id="pVdlfNSVQghq543598hL-25" style="edgeStyle=orthogonalEdgeStyle;rounded=0;orthogonalLoop=1;jettySize=auto;html=1;entryX=0.565;entryY=-0.017;entryDx=0;entryDy=0;entryPerimeter=0;" parent="pVdlfNSVQghq543598hL-79" source="pVdlfNSVQghq543598hL-20" target="pVdlfNSVQghq543598hL-24" edge="1">
          <mxGeometry relative="1" as="geometry" />
        </mxCell>
        <mxCell id="pVdlfNSVQghq543598hL-26" value="否" style="edgeLabel;html=1;align=center;verticalAlign=middle;resizable=0;points=[];" parent="pVdlfNSVQghq543598hL-25" vertex="1" connectable="0">
          <mxGeometry x="0.071" y="2" relative="1" as="geometry">
            <mxPoint as="offset" />
          </mxGeometry>
        </mxCell>
        <mxCell id="pVdlfNSVQghq543598hL-32" value="" style="edgeStyle=orthogonalEdgeStyle;rounded=0;orthogonalLoop=1;jettySize=auto;html=1;" parent="pVdlfNSVQghq543598hL-79" source="pVdlfNSVQghq543598hL-29" target="pVdlfNSVQghq543598hL-20" edge="1">
          <mxGeometry relative="1" as="geometry" />
        </mxCell>
        <mxCell id="pVdlfNSVQghq543598hL-29" value="根据目标类型修改h，w，l" style="rounded=0;whiteSpace=wrap;html=1;align=center;" parent="pVdlfNSVQghq543598hL-79" vertex="1">
          <mxGeometry x="315" y="180" width="120" height="60" as="geometry" />
        </mxCell>
        <mxCell id="pVdlfNSVQghq543598hL-30" value="" style="edgeStyle=orthogonalEdgeStyle;rounded=0;orthogonalLoop=1;jettySize=auto;html=1;" parent="pVdlfNSVQghq543598hL-79" source="pVdlfNSVQghq543598hL-13" target="pVdlfNSVQghq543598hL-29" edge="1">
          <mxGeometry relative="1" as="geometry" />
        </mxCell>
        <mxCell id="pVdlfNSVQghq543598hL-34" value="目标在图像中的宽度是否被截断" style="rhombus;whiteSpace=wrap;html=1;align=center;" parent="pVdlfNSVQghq543598hL-79" vertex="1">
          <mxGeometry x="180" y="340" width="110" height="80" as="geometry" />
        </mxCell>
        <mxCell id="pVdlfNSVQghq543598hL-35" style="edgeStyle=orthogonalEdgeStyle;rounded=0;orthogonalLoop=1;jettySize=auto;html=1;entryX=0.5;entryY=0;entryDx=0;entryDy=0;" parent="pVdlfNSVQghq543598hL-79" source="pVdlfNSVQghq543598hL-20" target="pVdlfNSVQghq543598hL-34" edge="1">
          <mxGeometry relative="1" as="geometry" />
        </mxCell>
        <mxCell id="pVdlfNSVQghq543598hL-36" value="是" style="edgeLabel;html=1;align=center;verticalAlign=middle;resizable=0;points=[];" parent="pVdlfNSVQghq543598hL-35" vertex="1" connectable="0">
          <mxGeometry x="-0.0619" y="-1" relative="1" as="geometry">
            <mxPoint as="offset" />
          </mxGeometry>
        </mxCell>
        <mxCell id="pVdlfNSVQghq543598hL-37" value="目标的物理距离distance设置为10m，像素中心mass_center_pixel设置为2D图像中心" style="rounded=0;whiteSpace=wrap;html=1;align=center;" parent="pVdlfNSVQghq543598hL-79" vertex="1">
          <mxGeometry y="450" width="160" height="60" as="geometry" />
        </mxCell>
        <mxCell id="pVdlfNSVQghq543598hL-38" style="edgeStyle=orthogonalEdgeStyle;rounded=0;orthogonalLoop=1;jettySize=auto;html=1;entryX=0.5;entryY=0;entryDx=0;entryDy=0;" parent="pVdlfNSVQghq543598hL-79" source="pVdlfNSVQghq543598hL-34" target="pVdlfNSVQghq543598hL-37" edge="1">
          <mxGeometry relative="1" as="geometry" />
        </mxCell>
        <mxCell id="pVdlfNSVQghq543598hL-40" value="是" style="edgeLabel;html=1;align=center;verticalAlign=middle;resizable=0;points=[];" parent="pVdlfNSVQghq543598hL-38" vertex="1" connectable="0">
          <mxGeometry x="-0.4722" y="-1" relative="1" as="geometry">
            <mxPoint as="offset" />
          </mxGeometry>
        </mxCell>
        <mxCell id="pVdlfNSVQghq543598hL-39" value="使用宽度信息计算目标的物理距离distance和像素中心mass_center_pixel" style="rounded=0;whiteSpace=wrap;html=1;align=center;" parent="pVdlfNSVQghq543598hL-79" vertex="1">
          <mxGeometry x="180" y="450" width="120" height="60" as="geometry" />
        </mxCell>
        <mxCell id="pVdlfNSVQghq543598hL-42" value="是" style="edgeStyle=orthogonalEdgeStyle;rounded=0;orthogonalLoop=1;jettySize=auto;html=1;entryX=0.458;entryY=-0.031;entryDx=0;entryDy=0;entryPerimeter=0;" parent="pVdlfNSVQghq543598hL-79" source="pVdlfNSVQghq543598hL-34" target="pVdlfNSVQghq543598hL-39" edge="1">
          <mxGeometry relative="1" as="geometry">
            <Array as="points">
              <mxPoint x="235" y="430" />
              <mxPoint x="235" y="430" />
            </Array>
          </mxGeometry>
        </mxCell>
        <mxCell id="pVdlfNSVQghq543598hL-80" value="&lt;font style=&quot;font-size: 46px&quot; color=&quot;#3333FF&quot;&gt;&lt;b&gt;1&lt;/b&gt;&lt;/font&gt;" style="text;html=1;align=center;verticalAlign=middle;resizable=0;points=[];autosize=1;strokeColor=none;" parent="pVdlfNSVQghq543598hL-79" vertex="1">
          <mxGeometry x="130" y="125" width="40" height="30" as="geometry" />
        </mxCell>
        <mxCell id="pVdlfNSVQghq543598hL-84" value="" style="endArrow=none;dashed=1;html=1;" parent="pVdlfNSVQghq543598hL-79" edge="1">
          <mxGeometry width="50" height="50" relative="1" as="geometry">
            <mxPoint x="-10" y="-20" as="sourcePoint" />
            <mxPoint x="620" y="-20" as="targetPoint" />
          </mxGeometry>
        </mxCell>
        <mxCell id="pVdlfNSVQghq543598hL-81" value="" style="endArrow=none;dashed=1;html=1;dashPattern=1 3;strokeWidth=2;" parent="pVdlfNSVQghq543598hL-86" edge="1">
          <mxGeometry width="50" height="50" relative="1" as="geometry">
            <mxPoint y="550" as="sourcePoint" />
            <mxPoint as="targetPoint" />
          </mxGeometry>
        </mxCell>
        <mxCell id="pVdlfNSVQghq543598hL-82" value="" style="endArrow=none;dashed=1;html=1;" parent="pVdlfNSVQghq543598hL-86" edge="1">
          <mxGeometry width="50" height="50" relative="1" as="geometry">
            <mxPoint y="550" as="sourcePoint" />
            <mxPoint x="630" y="550" as="targetPoint" />
          </mxGeometry>
        </mxCell>
        <mxCell id="pVdlfNSVQghq543598hL-83" value="" style="endArrow=none;dashed=1;html=1;" parent="pVdlfNSVQghq543598hL-86" edge="1">
          <mxGeometry width="50" height="50" relative="1" as="geometry">
            <mxPoint x="630" y="550" as="sourcePoint" />
            <mxPoint x="630" as="targetPoint" />
          </mxGeometry>
        </mxCell>
        <mxCell id="pVdlfNSVQghq543598hL-118" value="" style="group" parent="WIyWlLk6GJQsqaUBKTNV-1" vertex="1" connectable="0">
          <mxGeometry x="960" y="10" width="600" height="830" as="geometry" />
        </mxCell>
        <mxCell id="pVdlfNSVQghq543598hL-116" value="" style="rounded=0;whiteSpace=wrap;html=1;align=center;" parent="pVdlfNSVQghq543598hL-118" vertex="1">
          <mxGeometry width="590" height="820" as="geometry" />
        </mxCell>
        <mxCell id="pVdlfNSVQghq543598hL-87" value="" style="group" parent="pVdlfNSVQghq543598hL-118" vertex="1" connectable="0">
          <mxGeometry x="30" y="30" width="570" height="800" as="geometry" />
        </mxCell>
        <mxCell id="pVdlfNSVQghq543598hL-44" value="根据高度或宽度信息进行目标到相机距离的计算以及像素中心mass_center_pixel的计算" style="rounded=1;whiteSpace=wrap;html=1;fontSize=12;glass=0;strokeWidth=1;shadow=0;" parent="pVdlfNSVQghq543598hL-87" vertex="1">
          <mxGeometry x="210" width="120" height="80" as="geometry" />
        </mxCell>
        <mxCell id="pVdlfNSVQghq543598hL-55" value="&lt;div&gt;camera_model_&lt;/div&gt;" style="rounded=0;whiteSpace=wrap;html=1;" parent="pVdlfNSVQghq543598hL-87" vertex="1">
          <mxGeometry y="230" width="90" height="40" as="geometry" />
        </mxCell>
        <mxCell id="pVdlfNSVQghq543598hL-56" value="&lt;div&gt;1.box_center_pixel&lt;/div&gt;&lt;div&gt;2.corners&lt;/div&gt;&lt;div&gt;3.根据corners、corners、lower_right初步估计目标在图像中的质心mass_center_pixel&lt;/div&gt;" style="rounded=0;whiteSpace=wrap;html=1;align=left;" parent="pVdlfNSVQghq543598hL-87" vertex="1">
          <mxGeometry x="150" y="220" width="240" height="60" as="geometry" />
        </mxCell>
        <mxCell id="pVdlfNSVQghq543598hL-66" value="" style="edgeStyle=orthogonalEdgeStyle;rounded=0;orthogonalLoop=1;jettySize=auto;html=1;" parent="pVdlfNSVQghq543598hL-87" source="pVdlfNSVQghq543598hL-55" target="pVdlfNSVQghq543598hL-56" edge="1">
          <mxGeometry relative="1" as="geometry" />
        </mxCell>
        <mxCell id="pVdlfNSVQghq543598hL-65" value="" style="edgeStyle=orthogonalEdgeStyle;rounded=0;orthogonalLoop=1;jettySize=auto;html=1;" parent="pVdlfNSVQghq543598hL-87" source="pVdlfNSVQghq543598hL-63" target="pVdlfNSVQghq543598hL-56" edge="1">
          <mxGeometry relative="1" as="geometry" />
        </mxCell>
        <mxCell id="pVdlfNSVQghq543598hL-63" value="&lt;div align=&quot;left&quot;&gt;h&lt;br&gt;w&lt;br&gt;l&lt;br&gt;alpha_deg&lt;/div&gt;&lt;div align=&quot;left&quot;&gt;upper_left&lt;br&gt;lower_right&lt;/div&gt;" style="rounded=0;whiteSpace=wrap;html=1;" parent="pVdlfNSVQghq543598hL-87" vertex="1">
          <mxGeometry x="210" y="100" width="120" height="90" as="geometry" />
        </mxCell>
        <mxCell id="pVdlfNSVQghq543598hL-64" value="" style="edgeStyle=orthogonalEdgeStyle;rounded=0;orthogonalLoop=1;jettySize=auto;html=1;" parent="pVdlfNSVQghq543598hL-87" source="pVdlfNSVQghq543598hL-44" target="pVdlfNSVQghq543598hL-63" edge="1">
          <mxGeometry relative="1" as="geometry" />
        </mxCell>
        <mxCell id="pVdlfNSVQghq543598hL-68" value="3D box投影到图像的宽度或高度等于2Dbox的宽度和高度" style="rhombus;whiteSpace=wrap;html=1;align=center;" parent="pVdlfNSVQghq543598hL-87" vertex="1">
          <mxGeometry x="195" y="310" width="150" height="130" as="geometry" />
        </mxCell>
        <mxCell id="pVdlfNSVQghq543598hL-69" value="" style="edgeStyle=orthogonalEdgeStyle;rounded=0;orthogonalLoop=1;jettySize=auto;html=1;" parent="pVdlfNSVQghq543598hL-87" source="pVdlfNSVQghq543598hL-56" target="pVdlfNSVQghq543598hL-68" edge="1">
          <mxGeometry relative="1" as="geometry" />
        </mxCell>
        <mxCell id="pVdlfNSVQghq543598hL-78" style="edgeStyle=orthogonalEdgeStyle;rounded=0;orthogonalLoop=1;jettySize=auto;html=1;entryX=0;entryY=0.5;entryDx=0;entryDy=0;" parent="pVdlfNSVQghq543598hL-87" source="pVdlfNSVQghq543598hL-70" target="pVdlfNSVQghq543598hL-68" edge="1">
          <mxGeometry relative="1" as="geometry">
            <Array as="points">
              <mxPoint x="175" y="670" />
              <mxPoint x="175" y="375" />
            </Array>
          </mxGeometry>
        </mxCell>
        <mxCell id="pVdlfNSVQghq543598hL-70" value="将修改后的3Dbox投影到图像中" style="rounded=0;whiteSpace=wrap;html=1;align=center;" parent="pVdlfNSVQghq543598hL-87" vertex="1">
          <mxGeometry x="210" y="640" width="120" height="60" as="geometry" />
        </mxCell>
        <mxCell id="pVdlfNSVQghq543598hL-74" value="" style="edgeStyle=orthogonalEdgeStyle;rounded=0;orthogonalLoop=1;jettySize=auto;html=1;" parent="pVdlfNSVQghq543598hL-87" source="pVdlfNSVQghq543598hL-72" target="pVdlfNSVQghq543598hL-70" edge="1">
          <mxGeometry relative="1" as="geometry">
            <Array as="points">
              <mxPoint x="270" y="620" />
              <mxPoint x="270" y="620" />
            </Array>
          </mxGeometry>
        </mxCell>
        <mxCell id="pVdlfNSVQghq543598hL-72" value="修改3Dbox到相机的距离" style="rounded=0;whiteSpace=wrap;html=1;align=center;" parent="pVdlfNSVQghq543598hL-87" vertex="1">
          <mxGeometry x="210" y="530" width="120" height="60" as="geometry" />
        </mxCell>
        <mxCell id="pVdlfNSVQghq543598hL-73" value="不等于" style="edgeStyle=orthogonalEdgeStyle;rounded=0;orthogonalLoop=1;jettySize=auto;html=1;" parent="pVdlfNSVQghq543598hL-87" source="pVdlfNSVQghq543598hL-68" target="pVdlfNSVQghq543598hL-72" edge="1">
          <mxGeometry relative="1" as="geometry" />
        </mxCell>
        <mxCell id="pVdlfNSVQghq543598hL-76" value="得到物体距离相机的距离" style="rounded=0;whiteSpace=wrap;html=1;align=center;" parent="pVdlfNSVQghq543598hL-87" vertex="1">
          <mxGeometry x="410" y="720" width="120" height="60" as="geometry" />
        </mxCell>
        <mxCell id="pVdlfNSVQghq543598hL-77" style="edgeStyle=orthogonalEdgeStyle;rounded=0;orthogonalLoop=1;jettySize=auto;html=1;exitX=1;exitY=0.5;exitDx=0;exitDy=0;entryX=0.583;entryY=0;entryDx=0;entryDy=0;entryPerimeter=0;" parent="pVdlfNSVQghq543598hL-87" source="pVdlfNSVQghq543598hL-68" target="pVdlfNSVQghq543598hL-76" edge="1">
          <mxGeometry relative="1" as="geometry" />
        </mxCell>
        <mxCell id="pVdlfNSVQghq543598hL-114" value="&lt;font style=&quot;font-size: 46px&quot; color=&quot;#3333FF&quot;&gt;&lt;b&gt;2&lt;/b&gt;&lt;/font&gt;" style="text;html=1;align=center;verticalAlign=middle;resizable=0;points=[];autosize=1;strokeColor=none;" parent="pVdlfNSVQghq543598hL-87" vertex="1">
          <mxGeometry x="60" y="70" width="40" height="30" as="geometry" />
        </mxCell>
        <mxCell id="pVdlfNSVQghq543598hL-122" value="" style="group" parent="WIyWlLk6GJQsqaUBKTNV-1" vertex="1" connectable="0">
          <mxGeometry x="70" y="610" width="330" height="220" as="geometry" />
        </mxCell>
        <mxCell id="pVdlfNSVQghq543598hL-121" value="" style="rounded=0;whiteSpace=wrap;html=1;align=left;" parent="pVdlfNSVQghq543598hL-122" vertex="1">
          <mxGeometry width="330" height="220" as="geometry" />
        </mxCell>
        <mxCell id="pVdlfNSVQghq543598hL-120" value="&amp;nbsp;pt2d[0] = pt3d[0] / pt3d[2];&lt;br&gt;&lt;div&gt;&amp;nbsp;pt2d[1] = pt3d[1] / pt3d[2];&lt;/div&gt;&lt;div&gt;&amp;nbsp;pt2d[0] = pt2d[0] * focal_length_x_ + center_x_;&lt;br&gt;&amp;nbsp;pt2d[1]  = pt2d[1] * focal_length_y_ + center_y_;&lt;br&gt;&lt;/div&gt;" style="rounded=1;whiteSpace=wrap;html=1;align=left;" parent="pVdlfNSVQghq543598hL-122" vertex="1">
          <mxGeometry x="10" y="20" width="280" height="60" as="geometry" />
        </mxCell>
        <mxCell id="pVdlfNSVQghq543598hL-123" value="&lt;div align=&quot;left&quot;&gt;3D转2D：既是相机坐标系转到图像坐标系,小孔成像过程&lt;/div&gt;&lt;div align=&quot;left&quot;&gt;- 未考虑畸变情况&lt;br&gt;&lt;/div&gt;&lt;div align=&quot;left&quot;&gt;&lt;br&gt;&lt;/div&gt;" style="text;html=1;strokeColor=none;fillColor=none;align=left;verticalAlign=middle;whiteSpace=wrap;rounded=0;" parent="pVdlfNSVQghq543598hL-122" vertex="1">
          <mxGeometry x="20" y="110" width="300" height="70" as="geometry" />
        </mxCell>
        <mxCell id="pVdlfNSVQghq543598hL-124" value="&lt;font style=&quot;font-size: 46px&quot; color=&quot;#3333FF&quot;&gt;&lt;b&gt;3&lt;/b&gt;&lt;/font&gt;" style="text;html=1;strokeColor=none;fillColor=none;align=center;verticalAlign=middle;whiteSpace=wrap;rounded=0;" parent="pVdlfNSVQghq543598hL-122" vertex="1">
          <mxGeometry x="290" y="10" width="40" height="20" as="geometry" />
        </mxCell>
        <mxCell id="pVdlfNSVQghq543598hL-125" value="" style="group" parent="WIyWlLk6GJQsqaUBKTNV-1" vertex="1" connectable="0">
          <mxGeometry x="470" y="740" width="330" height="220" as="geometry" />
        </mxCell>
        <mxCell id="pVdlfNSVQghq543598hL-126" value="" style="rounded=0;whiteSpace=wrap;html=1;align=left;" parent="pVdlfNSVQghq543598hL-125" vertex="1">
          <mxGeometry width="330" height="220" as="geometry" />
        </mxCell>
        <mxCell id="pVdlfNSVQghq543598hL-127" value="pt3d[0] = (pt2d[0] - center_x_) / focal_length_x_;&lt;br&gt;&lt;div&gt;pt3d[1] = (pt2d[1] - center_y_) / focal_length_y_;&lt;/div&gt;&lt;div&gt;pt3d[2] = 1;&lt;br&gt;&lt;/div&gt;" style="rounded=1;whiteSpace=wrap;html=1;align=left;" parent="pVdlfNSVQghq543598hL-125" vertex="1">
          <mxGeometry x="10" y="20" width="280" height="60" as="geometry" />
        </mxCell>
        <mxCell id="pVdlfNSVQghq543598hL-128" value="&lt;div align=&quot;left&quot;&gt;2D转3D：假设Z轴为1，将图像坐标系转置相机坐标系&lt;/div&gt;&lt;div align=&quot;left&quot;&gt;- 未考虑畸变情况&lt;/div&gt;&lt;div align=&quot;left&quot;&gt;- Z轴为1&lt;br&gt;&lt;/div&gt;&lt;div align=&quot;left&quot;&gt;&lt;br&gt;&lt;/div&gt;" style="text;html=1;strokeColor=none;fillColor=none;align=left;verticalAlign=middle;whiteSpace=wrap;rounded=0;" parent="pVdlfNSVQghq543598hL-125" vertex="1">
          <mxGeometry x="20" y="110" width="300" height="70" as="geometry" />
        </mxCell>
        <mxCell id="pVdlfNSVQghq543598hL-129" value="&lt;font style=&quot;font-size: 46px&quot; color=&quot;#3333FF&quot;&gt;&lt;b&gt;4&lt;/b&gt;&lt;/font&gt;" style="text;html=1;strokeColor=none;fillColor=none;align=center;verticalAlign=middle;whiteSpace=wrap;rounded=0;" parent="pVdlfNSVQghq543598hL-125" vertex="1">
          <mxGeometry x="290" y="10" width="40" height="20" as="geometry" />
        </mxCell>
      </root>
    </mxGraphModel>
  </diagram>
  <diagram id="nQkH-CrOsasp9GFXLlY7" name="第 2 页">
    <mxGraphModel dx="1640" dy="1577" grid="1" gridSize="10" guides="1" tooltips="1" connect="1" arrows="1" fold="1" page="1" pageScale="1" pageWidth="827" pageHeight="1169" math="0" shadow="0">
      <root>
        <mxCell id="0" />
        <mxCell id="1" parent="0" />
        <mxCell id="4qVyWYOQ_H-MjT7jH4a1-28" style="edgeStyle=orthogonalEdgeStyle;rounded=0;orthogonalLoop=1;jettySize=auto;html=1;" edge="1" parent="1" source="4qVyWYOQ_H-MjT7jH4a1-18" target="4qVyWYOQ_H-MjT7jH4a1-27">
          <mxGeometry relative="1" as="geometry" />
        </mxCell>
        <mxCell id="4qVyWYOQ_H-MjT7jH4a1-18" value="" style="rounded=0;whiteSpace=wrap;html=1;" vertex="1" parent="1">
          <mxGeometry x="590.5" y="2260" width="379" height="220" as="geometry" />
        </mxCell>
        <mxCell id="ZLj0fXw2Sk4aRiUQEcRr-33" style="edgeStyle=orthogonalEdgeStyle;rounded=0;orthogonalLoop=1;jettySize=auto;html=1;entryX=0.5;entryY=0;entryDx=0;entryDy=0;" parent="1" source="ZLj0fXw2Sk4aRiUQEcRr-27" target="ZLj0fXw2Sk4aRiUQEcRr-32" edge="1">
          <mxGeometry relative="1" as="geometry" />
        </mxCell>
        <mxCell id="ZLj0fXw2Sk4aRiUQEcRr-27" value="" style="rounded=0;whiteSpace=wrap;html=1;" parent="1" vertex="1">
          <mxGeometry x="-720" y="1770" width="540" height="400" as="geometry" />
        </mxCell>
        <mxCell id="Pkdxxxdbt_dBAfZ66-lr-5" style="edgeStyle=orthogonalEdgeStyle;rounded=0;orthogonalLoop=1;jettySize=auto;html=1;entryX=0.5;entryY=0;entryDx=0;entryDy=0;" parent="1" source="Pkdxxxdbt_dBAfZ66-lr-1" target="Pkdxxxdbt_dBAfZ66-lr-4" edge="1">
          <mxGeometry relative="1" as="geometry" />
        </mxCell>
        <mxCell id="Pkdxxxdbt_dBAfZ66-lr-1" value="Fusion" style="rounded=0;whiteSpace=wrap;html=1;" parent="1" vertex="1">
          <mxGeometry y="40" width="120" height="60" as="geometry" />
        </mxCell>
        <mxCell id="Pkdxxxdbt_dBAfZ66-lr-9" style="edgeStyle=orthogonalEdgeStyle;rounded=0;orthogonalLoop=1;jettySize=auto;html=1;entryX=0.5;entryY=0;entryDx=0;entryDy=0;" parent="1" source="Pkdxxxdbt_dBAfZ66-lr-2" target="Pkdxxxdbt_dBAfZ66-lr-8" edge="1">
          <mxGeometry relative="1" as="geometry" />
        </mxCell>
        <mxCell id="Pkdxxxdbt_dBAfZ66-lr-2" value="1. 保存数据帧" style="rounded=0;whiteSpace=wrap;html=1;" parent="1" vertex="1">
          <mxGeometry y="200" width="120" height="60" as="geometry" />
        </mxCell>
        <mxCell id="Pkdxxxdbt_dBAfZ66-lr-6" style="edgeStyle=orthogonalEdgeStyle;rounded=0;orthogonalLoop=1;jettySize=auto;html=1;entryX=0.5;entryY=0;entryDx=0;entryDy=0;" parent="1" source="Pkdxxxdbt_dBAfZ66-lr-4" target="Pkdxxxdbt_dBAfZ66-lr-2" edge="1">
          <mxGeometry relative="1" as="geometry" />
        </mxCell>
        <mxCell id="Pkdxxxdbt_dBAfZ66-lr-10" style="edgeStyle=orthogonalEdgeStyle;rounded=0;orthogonalLoop=1;jettySize=auto;html=1;entryX=1;entryY=0.5;entryDx=0;entryDy=0;" parent="1" source="Pkdxxxdbt_dBAfZ66-lr-4" target="Pkdxxxdbt_dBAfZ66-lr-8" edge="1">
          <mxGeometry relative="1" as="geometry">
            <Array as="points">
              <mxPoint x="160" y="150" />
              <mxPoint x="160" y="305" />
            </Array>
          </mxGeometry>
        </mxCell>
        <mxCell id="Pkdxxxdbt_dBAfZ66-lr-4" value="33ms定时器" style="rounded=0;whiteSpace=wrap;html=1;" parent="1" vertex="1">
          <mxGeometry y="120" width="120" height="60" as="geometry" />
        </mxCell>
        <mxCell id="Pkdxxxdbt_dBAfZ66-lr-11" style="edgeStyle=orthogonalEdgeStyle;rounded=0;orthogonalLoop=1;jettySize=auto;html=1;" parent="1" source="Pkdxxxdbt_dBAfZ66-lr-8" edge="1">
          <mxGeometry relative="1" as="geometry">
            <mxPoint y="230" as="targetPoint" />
            <Array as="points">
              <mxPoint x="-40" y="305" />
              <mxPoint x="-40" y="230" />
            </Array>
          </mxGeometry>
        </mxCell>
        <mxCell id="Pkdxxxdbt_dBAfZ66-lr-12" value="N" style="edgeLabel;html=1;align=center;verticalAlign=middle;resizable=0;points=[];" parent="Pkdxxxdbt_dBAfZ66-lr-11" vertex="1" connectable="0">
          <mxGeometry x="0.0508" relative="1" as="geometry">
            <mxPoint as="offset" />
          </mxGeometry>
        </mxCell>
        <mxCell id="Pkdxxxdbt_dBAfZ66-lr-25" style="edgeStyle=orthogonalEdgeStyle;rounded=0;orthogonalLoop=1;jettySize=auto;html=1;entryX=0.5;entryY=0;entryDx=0;entryDy=0;" parent="1" source="Pkdxxxdbt_dBAfZ66-lr-8" target="Pkdxxxdbt_dBAfZ66-lr-13" edge="1">
          <mxGeometry relative="1" as="geometry" />
        </mxCell>
        <mxCell id="Pkdxxxdbt_dBAfZ66-lr-26" value="Y" style="edgeLabel;html=1;align=center;verticalAlign=middle;resizable=0;points=[];" parent="Pkdxxxdbt_dBAfZ66-lr-25" vertex="1" connectable="0">
          <mxGeometry x="-0.2306" y="-1" relative="1" as="geometry">
            <mxPoint as="offset" />
          </mxGeometry>
        </mxCell>
        <mxCell id="Pkdxxxdbt_dBAfZ66-lr-8" value="时间到?" style="rhombus;whiteSpace=wrap;html=1;" parent="1" vertex="1">
          <mxGeometry x="20" y="280" width="80" height="50" as="geometry" />
        </mxCell>
        <mxCell id="Pkdxxxdbt_dBAfZ66-lr-27" style="edgeStyle=orthogonalEdgeStyle;rounded=0;orthogonalLoop=1;jettySize=auto;html=1;entryX=0.5;entryY=0;entryDx=0;entryDy=0;" parent="1" source="Pkdxxxdbt_dBAfZ66-lr-13" target="Pkdxxxdbt_dBAfZ66-lr-14" edge="1">
          <mxGeometry relative="1" as="geometry" />
        </mxCell>
        <mxCell id="Pkdxxxdbt_dBAfZ66-lr-13" value="2. 查询所有传感器最新的一帧" style="rounded=0;whiteSpace=wrap;html=1;" parent="1" vertex="1">
          <mxGeometry y="370" width="120" height="60" as="geometry" />
        </mxCell>
        <mxCell id="Pkdxxxdbt_dBAfZ66-lr-18" style="edgeStyle=orthogonalEdgeStyle;rounded=0;orthogonalLoop=1;jettySize=auto;html=1;entryX=0;entryY=0.5;entryDx=0;entryDy=0;" parent="1" source="Pkdxxxdbt_dBAfZ66-lr-14" target="Pkdxxxdbt_dBAfZ66-lr-15" edge="1">
          <mxGeometry relative="1" as="geometry" />
        </mxCell>
        <mxCell id="Pkdxxxdbt_dBAfZ66-lr-19" style="edgeStyle=orthogonalEdgeStyle;rounded=0;orthogonalLoop=1;jettySize=auto;html=1;entryX=0;entryY=0.5;entryDx=0;entryDy=0;" parent="1" source="Pkdxxxdbt_dBAfZ66-lr-14" target="Pkdxxxdbt_dBAfZ66-lr-16" edge="1">
          <mxGeometry relative="1" as="geometry" />
        </mxCell>
        <mxCell id="Pkdxxxdbt_dBAfZ66-lr-20" style="edgeStyle=orthogonalEdgeStyle;rounded=0;orthogonalLoop=1;jettySize=auto;html=1;entryX=0;entryY=0.5;entryDx=0;entryDy=0;" parent="1" source="Pkdxxxdbt_dBAfZ66-lr-14" target="Pkdxxxdbt_dBAfZ66-lr-17" edge="1">
          <mxGeometry relative="1" as="geometry" />
        </mxCell>
        <mxCell id="Pkdxxxdbt_dBAfZ66-lr-23" style="edgeStyle=orthogonalEdgeStyle;rounded=0;orthogonalLoop=1;jettySize=auto;html=1;entryX=0.5;entryY=0;entryDx=0;entryDy=0;" parent="1" source="Pkdxxxdbt_dBAfZ66-lr-14" target="Pkdxxxdbt_dBAfZ66-lr-21" edge="1">
          <mxGeometry relative="1" as="geometry" />
        </mxCell>
        <mxCell id="Pkdxxxdbt_dBAfZ66-lr-14" value="3. 帧目标融合" style="rounded=0;whiteSpace=wrap;html=1;" parent="1" vertex="1">
          <mxGeometry y="480" width="120" height="60" as="geometry" />
        </mxCell>
        <mxCell id="9wiKYSSof15RRI5ela-5-1" style="edgeStyle=orthogonalEdgeStyle;rounded=0;orthogonalLoop=1;jettySize=auto;html=1;entryX=0;entryY=0.5;entryDx=0;entryDy=0;" parent="1" source="Pkdxxxdbt_dBAfZ66-lr-15" target="Pkdxxxdbt_dBAfZ66-lr-28" edge="1">
          <mxGeometry relative="1" as="geometry" />
        </mxCell>
        <mxCell id="Pkdxxxdbt_dBAfZ66-lr-15" value="3.1 前景融合" style="rounded=0;whiteSpace=wrap;html=1;" parent="1" vertex="1">
          <mxGeometry x="180" y="410" width="120" height="60" as="geometry" />
        </mxCell>
        <mxCell id="Pkdxxxdbt_dBAfZ66-lr-16" value="3.2 背景融合" style="rounded=0;whiteSpace=wrap;html=1;" parent="1" vertex="1">
          <mxGeometry x="180" y="480" width="120" height="60" as="geometry" />
        </mxCell>
        <mxCell id="Pkdxxxdbt_dBAfZ66-lr-17" value="3.3 删除丢失的航迹" style="rounded=0;whiteSpace=wrap;html=1;" parent="1" vertex="1">
          <mxGeometry x="180" y="550" width="120" height="60" as="geometry" />
        </mxCell>
        <mxCell id="Pkdxxxdbt_dBAfZ66-lr-24" style="edgeStyle=orthogonalEdgeStyle;rounded=0;orthogonalLoop=1;jettySize=auto;html=1;" parent="1" source="Pkdxxxdbt_dBAfZ66-lr-21" target="Pkdxxxdbt_dBAfZ66-lr-22" edge="1">
          <mxGeometry relative="1" as="geometry" />
        </mxCell>
        <mxCell id="Pkdxxxdbt_dBAfZ66-lr-21" value="4. 过滤并发布最新的融合结果" style="rounded=0;whiteSpace=wrap;html=1;" parent="1" vertex="1">
          <mxGeometry y="590" width="120" height="60" as="geometry" />
        </mxCell>
        <mxCell id="Pkdxxxdbt_dBAfZ66-lr-22" value="结束" style="rounded=1;whiteSpace=wrap;html=1;" parent="1" vertex="1">
          <mxGeometry y="700" width="120" height="60" as="geometry" />
        </mxCell>
        <mxCell id="Pkdxxxdbt_dBAfZ66-lr-39" style="edgeStyle=orthogonalEdgeStyle;rounded=0;orthogonalLoop=1;jettySize=auto;html=1;entryX=-0.004;entryY=0.436;entryDx=0;entryDy=0;entryPerimeter=0;jumpStyle=arc;" parent="1" source="Pkdxxxdbt_dBAfZ66-lr-28" target="Pkdxxxdbt_dBAfZ66-lr-33" edge="1">
          <mxGeometry relative="1" as="geometry">
            <Array as="points">
              <mxPoint x="680" y="150" />
              <mxPoint x="680" y="36" />
            </Array>
          </mxGeometry>
        </mxCell>
        <mxCell id="9wiKYSSof15RRI5ela-5-2" style="edgeStyle=orthogonalEdgeStyle;rounded=0;orthogonalLoop=1;jettySize=auto;html=1;entryX=0.5;entryY=0;entryDx=0;entryDy=0;" parent="1" source="Pkdxxxdbt_dBAfZ66-lr-28" target="Pkdxxxdbt_dBAfZ66-lr-29" edge="1">
          <mxGeometry relative="1" as="geometry" />
        </mxCell>
        <mxCell id="Pkdxxxdbt_dBAfZ66-lr-28" value="1. 关联匹配" style="rounded=0;whiteSpace=wrap;html=1;" parent="1" vertex="1">
          <mxGeometry x="440" y="120" width="120" height="60" as="geometry" />
        </mxCell>
        <mxCell id="9wiKYSSof15RRI5ela-5-3" style="edgeStyle=orthogonalEdgeStyle;rounded=0;orthogonalLoop=1;jettySize=auto;html=1;entryX=0.5;entryY=0;entryDx=0;entryDy=0;" parent="1" source="Pkdxxxdbt_dBAfZ66-lr-29" target="Pkdxxxdbt_dBAfZ66-lr-30" edge="1">
          <mxGeometry relative="1" as="geometry" />
        </mxCell>
        <mxCell id="9wiKYSSof15RRI5ela-5-12" style="edgeStyle=orthogonalEdgeStyle;rounded=0;orthogonalLoop=1;jettySize=auto;html=1;jumpStyle=arc;entryX=0.5;entryY=0;entryDx=0;entryDy=0;" parent="1" source="Pkdxxxdbt_dBAfZ66-lr-29" target="Pkdxxxdbt_dBAfZ66-lr-65" edge="1">
          <mxGeometry relative="1" as="geometry">
            <mxPoint x="1490" as="targetPoint" />
            <Array as="points">
              <mxPoint x="660" y="250" />
              <mxPoint x="660" y="-60" />
              <mxPoint x="1505" y="-60" />
            </Array>
          </mxGeometry>
        </mxCell>
        <mxCell id="Pkdxxxdbt_dBAfZ66-lr-29" value="2. 更新匹配的航迹" style="rounded=0;whiteSpace=wrap;html=1;" parent="1" vertex="1">
          <mxGeometry x="440" y="220" width="120" height="60" as="geometry" />
        </mxCell>
        <mxCell id="9wiKYSSof15RRI5ela-5-4" style="edgeStyle=orthogonalEdgeStyle;rounded=0;orthogonalLoop=1;jettySize=auto;html=1;entryX=0.5;entryY=0;entryDx=0;entryDy=0;" parent="1" source="Pkdxxxdbt_dBAfZ66-lr-30" target="Pkdxxxdbt_dBAfZ66-lr-31" edge="1">
          <mxGeometry relative="1" as="geometry" />
        </mxCell>
        <mxCell id="9wiKYSSof15RRI5ela-5-13" style="edgeStyle=orthogonalEdgeStyle;rounded=0;orthogonalLoop=1;jettySize=auto;html=1;jumpStyle=arc;entryX=0.5;entryY=0;entryDx=0;entryDy=0;" parent="1" source="Pkdxxxdbt_dBAfZ66-lr-30" target="Pkdxxxdbt_dBAfZ66-lr-65" edge="1">
          <mxGeometry relative="1" as="geometry">
            <mxPoint x="1660" y="110" as="targetPoint" />
            <Array as="points">
              <mxPoint x="640" y="340" />
              <mxPoint x="640" y="-90" />
              <mxPoint x="1505" y="-90" />
            </Array>
          </mxGeometry>
        </mxCell>
        <mxCell id="Pkdxxxdbt_dBAfZ66-lr-30" value="3. 更新未匹配的航迹" style="rounded=0;whiteSpace=wrap;html=1;" parent="1" vertex="1">
          <mxGeometry x="440" y="310" width="120" height="60" as="geometry" />
        </mxCell>
        <mxCell id="9wiKYSSof15RRI5ela-5-5" style="edgeStyle=orthogonalEdgeStyle;rounded=0;orthogonalLoop=1;jettySize=auto;html=1;entryX=0.5;entryY=0;entryDx=0;entryDy=0;" parent="1" source="Pkdxxxdbt_dBAfZ66-lr-31" target="Pkdxxxdbt_dBAfZ66-lr-32" edge="1">
          <mxGeometry relative="1" as="geometry" />
        </mxCell>
        <mxCell id="Pkdxxxdbt_dBAfZ66-lr-31" value="4. 创建新的航迹" style="rounded=0;whiteSpace=wrap;html=1;" parent="1" vertex="1">
          <mxGeometry x="440" y="410" width="120" height="60" as="geometry" />
        </mxCell>
        <mxCell id="Pkdxxxdbt_dBAfZ66-lr-32" value="返回" style="rounded=1;whiteSpace=wrap;html=1;" parent="1" vertex="1">
          <mxGeometry x="440" y="550" width="120" height="60" as="geometry" />
        </mxCell>
        <mxCell id="Pkdxxxdbt_dBAfZ66-lr-37" style="edgeStyle=orthogonalEdgeStyle;rounded=0;orthogonalLoop=1;jettySize=auto;html=1;entryX=0.5;entryY=0;entryDx=0;entryDy=0;" parent="1" source="Pkdxxxdbt_dBAfZ66-lr-33" target="Pkdxxxdbt_dBAfZ66-lr-34" edge="1">
          <mxGeometry relative="1" as="geometry" />
        </mxCell>
        <mxCell id="Pkdxxxdbt_dBAfZ66-lr-38" style="edgeStyle=orthogonalEdgeStyle;rounded=0;orthogonalLoop=1;jettySize=auto;html=1;entryX=0.5;entryY=0;entryDx=0;entryDy=0;" parent="1" source="Pkdxxxdbt_dBAfZ66-lr-33" target="Pkdxxxdbt_dBAfZ66-lr-35" edge="1">
          <mxGeometry relative="1" as="geometry" />
        </mxCell>
        <mxCell id="Pkdxxxdbt_dBAfZ66-lr-33" value="&amp;nbsp;关联匹配" style="rounded=0;whiteSpace=wrap;html=1;" parent="1" vertex="1">
          <mxGeometry x="877" y="10" width="120" height="60" as="geometry" />
        </mxCell>
        <mxCell id="Pkdxxxdbt_dBAfZ66-lr-84" style="edgeStyle=orthogonalEdgeStyle;rounded=0;orthogonalLoop=1;jettySize=auto;html=1;entryX=0.5;entryY=0;entryDx=0;entryDy=0;jumpStyle=arc;" parent="1" source="Pkdxxxdbt_dBAfZ66-lr-34" target="Pkdxxxdbt_dBAfZ66-lr-40" edge="1">
          <mxGeometry relative="1" as="geometry" />
        </mxCell>
        <mxCell id="Pkdxxxdbt_dBAfZ66-lr-34" value="航迹" style="rounded=0;whiteSpace=wrap;html=1;" parent="1" vertex="1">
          <mxGeometry x="780" y="120" width="120" height="60" as="geometry" />
        </mxCell>
        <mxCell id="Pkdxxxdbt_dBAfZ66-lr-85" style="edgeStyle=orthogonalEdgeStyle;rounded=0;orthogonalLoop=1;jettySize=auto;html=1;exitX=0.5;exitY=1;exitDx=0;exitDy=0;entryX=0.5;entryY=0;entryDx=0;entryDy=0;jumpStyle=arc;" parent="1" source="Pkdxxxdbt_dBAfZ66-lr-35" target="Pkdxxxdbt_dBAfZ66-lr-40" edge="1">
          <mxGeometry relative="1" as="geometry">
            <mxPoint x="940" y="210" as="targetPoint" />
          </mxGeometry>
        </mxCell>
        <mxCell id="Pkdxxxdbt_dBAfZ66-lr-35" value="观测" style="rounded=0;whiteSpace=wrap;html=1;" parent="1" vertex="1">
          <mxGeometry x="960" y="120" width="120" height="60" as="geometry" />
        </mxCell>
        <mxCell id="Pkdxxxdbt_dBAfZ66-lr-86" style="edgeStyle=orthogonalEdgeStyle;rounded=0;jumpStyle=arc;orthogonalLoop=1;jettySize=auto;html=1;entryX=0.5;entryY=0;entryDx=0;entryDy=0;" parent="1" target="Pkdxxxdbt_dBAfZ66-lr-72" edge="1">
          <mxGeometry relative="1" as="geometry">
            <mxPoint x="937" y="280" as="sourcePoint" />
            <Array as="points">
              <mxPoint x="937" y="290" />
              <mxPoint x="787" y="290" />
            </Array>
          </mxGeometry>
        </mxCell>
        <mxCell id="Pkdxxxdbt_dBAfZ66-lr-87" style="edgeStyle=orthogonalEdgeStyle;rounded=0;jumpStyle=arc;orthogonalLoop=1;jettySize=auto;html=1;entryX=0.5;entryY=0;entryDx=0;entryDy=0;" parent="1" source="Pkdxxxdbt_dBAfZ66-lr-40" target="Pkdxxxdbt_dBAfZ66-lr-73" edge="1">
          <mxGeometry relative="1" as="geometry" />
        </mxCell>
        <mxCell id="Pkdxxxdbt_dBAfZ66-lr-88" style="edgeStyle=orthogonalEdgeStyle;rounded=0;jumpStyle=arc;orthogonalLoop=1;jettySize=auto;html=1;entryX=0.637;entryY=-0.053;entryDx=0;entryDy=0;entryPerimeter=0;exitX=0.5;exitY=1;exitDx=0;exitDy=0;" parent="1" source="Pkdxxxdbt_dBAfZ66-lr-40" target="Pkdxxxdbt_dBAfZ66-lr-74" edge="1">
          <mxGeometry relative="1" as="geometry">
            <mxPoint x="940" y="290" as="sourcePoint" />
            <Array as="points">
              <mxPoint x="937" y="290" />
              <mxPoint x="1110" y="290" />
              <mxPoint x="1110" y="307" />
            </Array>
          </mxGeometry>
        </mxCell>
        <mxCell id="Pkdxxxdbt_dBAfZ66-lr-40" value="1.IDAssign" style="rounded=0;whiteSpace=wrap;html=1;" parent="1" vertex="1">
          <mxGeometry x="877" y="220" width="120" height="60" as="geometry" />
        </mxCell>
        <mxCell id="Pkdxxxdbt_dBAfZ66-lr-91" style="edgeStyle=orthogonalEdgeStyle;rounded=0;jumpStyle=arc;orthogonalLoop=1;jettySize=auto;html=1;entryX=0.5;entryY=0;entryDx=0;entryDy=0;" parent="1" source="Pkdxxxdbt_dBAfZ66-lr-44" target="Pkdxxxdbt_dBAfZ66-lr-45" edge="1">
          <mxGeometry relative="1" as="geometry" />
        </mxCell>
        <mxCell id="Pkdxxxdbt_dBAfZ66-lr-44" value="2. 计算关联矩阵" style="rounded=0;whiteSpace=wrap;html=1;" parent="1" vertex="1">
          <mxGeometry x="951" y="420" width="120" height="60" as="geometry" />
        </mxCell>
        <mxCell id="Pkdxxxdbt_dBAfZ66-lr-47" style="edgeStyle=orthogonalEdgeStyle;rounded=0;orthogonalLoop=1;jettySize=auto;html=1;entryX=0;entryY=0.5;entryDx=0;entryDy=0;" parent="1" source="Pkdxxxdbt_dBAfZ66-lr-45" target="Pkdxxxdbt_dBAfZ66-lr-46" edge="1">
          <mxGeometry relative="1" as="geometry" />
        </mxCell>
        <mxCell id="Pkdxxxdbt_dBAfZ66-lr-52" style="edgeStyle=orthogonalEdgeStyle;rounded=0;orthogonalLoop=1;jettySize=auto;html=1;entryX=0.5;entryY=0;entryDx=0;entryDy=0;" parent="1" source="Pkdxxxdbt_dBAfZ66-lr-45" target="Pkdxxxdbt_dBAfZ66-lr-76" edge="1">
          <mxGeometry relative="1" as="geometry">
            <mxPoint x="1020" y="610" as="targetPoint" />
          </mxGeometry>
        </mxCell>
        <mxCell id="Pkdxxxdbt_dBAfZ66-lr-92" style="edgeStyle=orthogonalEdgeStyle;rounded=0;jumpStyle=arc;orthogonalLoop=1;jettySize=auto;html=1;entryX=0.5;entryY=0;entryDx=0;entryDy=0;exitX=0.5;exitY=1;exitDx=0;exitDy=0;" parent="1" source="Pkdxxxdbt_dBAfZ66-lr-45" target="Pkdxxxdbt_dBAfZ66-lr-75" edge="1">
          <mxGeometry relative="1" as="geometry" />
        </mxCell>
        <mxCell id="Pkdxxxdbt_dBAfZ66-lr-93" style="edgeStyle=orthogonalEdgeStyle;rounded=0;jumpStyle=arc;orthogonalLoop=1;jettySize=auto;html=1;entryX=0.5;entryY=0;entryDx=0;entryDy=0;" parent="1" target="Pkdxxxdbt_dBAfZ66-lr-77" edge="1">
          <mxGeometry relative="1" as="geometry">
            <mxPoint x="1011" y="590" as="sourcePoint" />
          </mxGeometry>
        </mxCell>
        <mxCell id="Pkdxxxdbt_dBAfZ66-lr-45" value="3. 最小化匹配" style="rounded=0;whiteSpace=wrap;html=1;" parent="1" vertex="1">
          <mxGeometry x="951" y="510" width="120" height="60" as="geometry" />
        </mxCell>
        <mxCell id="Pkdxxxdbt_dBAfZ66-lr-46" value="匈牙利匹配" style="rounded=0;whiteSpace=wrap;html=1;" parent="1" vertex="1">
          <mxGeometry x="1121" y="510" width="120" height="60" as="geometry" />
        </mxCell>
        <mxCell id="Pkdxxxdbt_dBAfZ66-lr-57" style="edgeStyle=orthogonalEdgeStyle;rounded=0;orthogonalLoop=1;jettySize=auto;html=1;entryX=0.5;entryY=0;entryDx=0;entryDy=0;" parent="1" source="Pkdxxxdbt_dBAfZ66-lr-53" target="Pkdxxxdbt_dBAfZ66-lr-79" edge="1">
          <mxGeometry relative="1" as="geometry">
            <mxPoint x="1079" y="820.0000000000002" as="targetPoint" />
          </mxGeometry>
        </mxCell>
        <mxCell id="Pkdxxxdbt_dBAfZ66-lr-98" style="edgeStyle=orthogonalEdgeStyle;rounded=0;jumpStyle=arc;orthogonalLoop=1;jettySize=auto;html=1;entryX=0.5;entryY=0;entryDx=0;entryDy=0;" parent="1" target="Pkdxxxdbt_dBAfZ66-lr-78" edge="1">
          <mxGeometry relative="1" as="geometry">
            <mxPoint x="1097" y="780" as="sourcePoint" />
          </mxGeometry>
        </mxCell>
        <mxCell id="Pkdxxxdbt_dBAfZ66-lr-99" style="edgeStyle=orthogonalEdgeStyle;rounded=0;jumpStyle=arc;orthogonalLoop=1;jettySize=auto;html=1;entryX=0.5;entryY=0;entryDx=0;entryDy=0;exitX=0.5;exitY=1;exitDx=0;exitDy=0;" parent="1" source="Pkdxxxdbt_dBAfZ66-lr-53" target="Pkdxxxdbt_dBAfZ66-lr-80" edge="1">
          <mxGeometry relative="1" as="geometry">
            <Array as="points">
              <mxPoint x="1097" y="780" />
              <mxPoint x="1257" y="780" />
            </Array>
          </mxGeometry>
        </mxCell>
        <mxCell id="Pkdxxxdbt_dBAfZ66-lr-53" value="4. PostInAssign" style="rounded=0;whiteSpace=wrap;html=1;" parent="1" vertex="1">
          <mxGeometry x="1037" y="710" width="120" height="60" as="geometry" />
        </mxCell>
        <mxCell id="Pkdxxxdbt_dBAfZ66-lr-103" style="edgeStyle=orthogonalEdgeStyle;rounded=0;jumpStyle=arc;orthogonalLoop=1;jettySize=auto;html=1;entryX=0.5;entryY=0;entryDx=0;entryDy=0;" parent="1" source="Pkdxxxdbt_dBAfZ66-lr-58" target="Pkdxxxdbt_dBAfZ66-lr-82" edge="1">
          <mxGeometry relative="1" as="geometry" />
        </mxCell>
        <mxCell id="Pkdxxxdbt_dBAfZ66-lr-104" style="edgeStyle=orthogonalEdgeStyle;rounded=0;jumpStyle=arc;orthogonalLoop=1;jettySize=auto;html=1;entryX=0.5;entryY=0;entryDx=0;entryDy=0;exitX=0.5;exitY=1;exitDx=0;exitDy=0;" parent="1" source="Pkdxxxdbt_dBAfZ66-lr-58" target="Pkdxxxdbt_dBAfZ66-lr-81" edge="1">
          <mxGeometry relative="1" as="geometry" />
        </mxCell>
        <mxCell id="Pkdxxxdbt_dBAfZ66-lr-105" style="edgeStyle=orthogonalEdgeStyle;rounded=0;jumpStyle=arc;orthogonalLoop=1;jettySize=auto;html=1;entryX=0.531;entryY=0;entryDx=0;entryDy=0;entryPerimeter=0;exitX=0.5;exitY=1;exitDx=0;exitDy=0;" parent="1" source="Pkdxxxdbt_dBAfZ66-lr-58" target="Pkdxxxdbt_dBAfZ66-lr-83" edge="1">
          <mxGeometry relative="1" as="geometry" />
        </mxCell>
        <mxCell id="Pkdxxxdbt_dBAfZ66-lr-58" value="5.生成未匹配数据" style="rounded=0;whiteSpace=wrap;html=1;" parent="1" vertex="1">
          <mxGeometry x="750" y="900" width="120" height="60" as="geometry" />
        </mxCell>
        <mxCell id="Pkdxxxdbt_dBAfZ66-lr-107" style="edgeStyle=orthogonalEdgeStyle;rounded=0;jumpStyle=arc;orthogonalLoop=1;jettySize=auto;html=1;" parent="1" source="Pkdxxxdbt_dBAfZ66-lr-62" target="Pkdxxxdbt_dBAfZ66-lr-64" edge="1">
          <mxGeometry relative="1" as="geometry" />
        </mxCell>
        <mxCell id="Pkdxxxdbt_dBAfZ66-lr-62" value="6.保存各自距离" style="rounded=0;whiteSpace=wrap;html=1;" parent="1" vertex="1">
          <mxGeometry x="750" y="1100" width="120" height="60" as="geometry" />
        </mxCell>
        <mxCell id="Pkdxxxdbt_dBAfZ66-lr-64" value="返回" style="rounded=1;whiteSpace=wrap;html=1;" parent="1" vertex="1">
          <mxGeometry x="750" y="1190" width="120" height="60" as="geometry" />
        </mxCell>
        <mxCell id="9wiKYSSof15RRI5ela-5-6" style="edgeStyle=orthogonalEdgeStyle;rounded=0;orthogonalLoop=1;jettySize=auto;html=1;entryX=0.5;entryY=0;entryDx=0;entryDy=0;" parent="1" source="Pkdxxxdbt_dBAfZ66-lr-65" target="Pkdxxxdbt_dBAfZ66-lr-66" edge="1">
          <mxGeometry relative="1" as="geometry" />
        </mxCell>
        <mxCell id="Pkdxxxdbt_dBAfZ66-lr-65" value="UpdateWithMeasurement" style="rounded=0;whiteSpace=wrap;html=1;" parent="1" vertex="1">
          <mxGeometry x="1410" y="50" width="190" height="60" as="geometry" />
        </mxCell>
        <mxCell id="9wiKYSSof15RRI5ela-5-7" style="edgeStyle=orthogonalEdgeStyle;rounded=0;orthogonalLoop=1;jettySize=auto;html=1;entryX=0.5;entryY=0;entryDx=0;entryDy=0;" parent="1" source="Pkdxxxdbt_dBAfZ66-lr-66" target="Pkdxxxdbt_dBAfZ66-lr-67" edge="1">
          <mxGeometry relative="1" as="geometry" />
        </mxCell>
        <mxCell id="Pkdxxxdbt_dBAfZ66-lr-66" value="DstExistenceFusion" style="rounded=0;whiteSpace=wrap;html=1;" parent="1" vertex="1">
          <mxGeometry x="1410" y="150" width="190" height="60" as="geometry" />
        </mxCell>
        <mxCell id="9wiKYSSof15RRI5ela-5-8" style="edgeStyle=orthogonalEdgeStyle;rounded=0;orthogonalLoop=1;jettySize=auto;html=1;entryX=0.5;entryY=0;entryDx=0;entryDy=0;" parent="1" source="Pkdxxxdbt_dBAfZ66-lr-67" target="Pkdxxxdbt_dBAfZ66-lr-68" edge="1">
          <mxGeometry relative="1" as="geometry">
            <mxPoint x="1505" y="360" as="targetPoint" />
          </mxGeometry>
        </mxCell>
        <mxCell id="Pkdxxxdbt_dBAfZ66-lr-67" value="KalmanMotionFusion" style="rounded=0;whiteSpace=wrap;html=1;" parent="1" vertex="1">
          <mxGeometry x="1410" y="260" width="190" height="60" as="geometry" />
        </mxCell>
        <mxCell id="9wiKYSSof15RRI5ela-5-9" style="edgeStyle=orthogonalEdgeStyle;rounded=0;orthogonalLoop=1;jettySize=auto;html=1;entryX=0.5;entryY=0;entryDx=0;entryDy=0;" parent="1" source="Pkdxxxdbt_dBAfZ66-lr-68" target="Pkdxxxdbt_dBAfZ66-lr-69" edge="1">
          <mxGeometry relative="1" as="geometry" />
        </mxCell>
        <mxCell id="Pkdxxxdbt_dBAfZ66-lr-68" value="PbfShapeFusion" style="rounded=0;whiteSpace=wrap;html=1;" parent="1" vertex="1">
          <mxGeometry x="1410" y="370" width="190" height="60" as="geometry" />
        </mxCell>
        <mxCell id="9wiKYSSof15RRI5ela-5-10" style="edgeStyle=orthogonalEdgeStyle;rounded=0;orthogonalLoop=1;jettySize=auto;html=1;entryX=0.5;entryY=0;entryDx=0;entryDy=0;" parent="1" source="Pkdxxxdbt_dBAfZ66-lr-69" target="Pkdxxxdbt_dBAfZ66-lr-70" edge="1">
          <mxGeometry relative="1" as="geometry" />
        </mxCell>
        <mxCell id="Pkdxxxdbt_dBAfZ66-lr-69" value="DstTypeFusion" style="rounded=0;whiteSpace=wrap;html=1;" parent="1" vertex="1">
          <mxGeometry x="1410" y="470" width="190" height="60" as="geometry" />
        </mxCell>
        <mxCell id="9wiKYSSof15RRI5ela-5-11" style="edgeStyle=orthogonalEdgeStyle;rounded=0;orthogonalLoop=1;jettySize=auto;html=1;entryX=0.5;entryY=0;entryDx=0;entryDy=0;" parent="1" source="Pkdxxxdbt_dBAfZ66-lr-70" target="Pkdxxxdbt_dBAfZ66-lr-71" edge="1">
          <mxGeometry relative="1" as="geometry" />
        </mxCell>
        <mxCell id="Pkdxxxdbt_dBAfZ66-lr-70" value="track_update" style="rounded=0;whiteSpace=wrap;html=1;" parent="1" vertex="1">
          <mxGeometry x="1410" y="580" width="190" height="60" as="geometry" />
        </mxCell>
        <mxCell id="Pkdxxxdbt_dBAfZ66-lr-71" value="返回" style="rounded=0;whiteSpace=wrap;html=1;" parent="1" vertex="1">
          <mxGeometry x="1410" y="700" width="190" height="60" as="geometry" />
        </mxCell>
        <mxCell id="Pkdxxxdbt_dBAfZ66-lr-113" style="edgeStyle=orthogonalEdgeStyle;rounded=0;jumpStyle=arc;orthogonalLoop=1;jettySize=auto;html=1;entryX=0;entryY=0.5;entryDx=0;entryDy=0;exitX=0.5;exitY=1;exitDx=0;exitDy=0;" parent="1" source="Pkdxxxdbt_dBAfZ66-lr-72" target="Pkdxxxdbt_dBAfZ66-lr-58" edge="1">
          <mxGeometry relative="1" as="geometry">
            <Array as="points">
              <mxPoint x="787" y="480" />
              <mxPoint x="730" y="480" />
              <mxPoint x="730" y="930" />
            </Array>
          </mxGeometry>
        </mxCell>
        <mxCell id="Pkdxxxdbt_dBAfZ66-lr-72" value="assignments" style="shape=parallelogram;perimeter=parallelogramPerimeter;whiteSpace=wrap;html=1;fixedSize=1;" parent="1" vertex="1">
          <mxGeometry x="714" y="310" width="146" height="60" as="geometry" />
        </mxCell>
        <mxCell id="Pkdxxxdbt_dBAfZ66-lr-89" style="edgeStyle=orthogonalEdgeStyle;rounded=0;jumpStyle=arc;orthogonalLoop=1;jettySize=auto;html=1;entryX=0.536;entryY=0;entryDx=0;entryDy=0;entryPerimeter=0;" parent="1" source="Pkdxxxdbt_dBAfZ66-lr-73" target="Pkdxxxdbt_dBAfZ66-lr-44" edge="1">
          <mxGeometry relative="1" as="geometry" />
        </mxCell>
        <mxCell id="Pkdxxxdbt_dBAfZ66-lr-73" value="unassigned Tracks" style="shape=parallelogram;perimeter=parallelogramPerimeter;whiteSpace=wrap;html=1;fixedSize=1;" parent="1" vertex="1">
          <mxGeometry x="867" y="310" width="140" height="60" as="geometry" />
        </mxCell>
        <mxCell id="Pkdxxxdbt_dBAfZ66-lr-90" style="edgeStyle=orthogonalEdgeStyle;rounded=0;jumpStyle=arc;orthogonalLoop=1;jettySize=auto;html=1;entryX=0.54;entryY=0;entryDx=0;entryDy=0;entryPerimeter=0;" parent="1" source="Pkdxxxdbt_dBAfZ66-lr-74" target="Pkdxxxdbt_dBAfZ66-lr-44" edge="1">
          <mxGeometry relative="1" as="geometry" />
        </mxCell>
        <mxCell id="Pkdxxxdbt_dBAfZ66-lr-74" value="unassigned meas" style="shape=parallelogram;perimeter=parallelogramPerimeter;whiteSpace=wrap;html=1;fixedSize=1;" parent="1" vertex="1">
          <mxGeometry x="1020" y="310" width="140" height="60" as="geometry" />
        </mxCell>
        <mxCell id="Pkdxxxdbt_dBAfZ66-lr-112" style="edgeStyle=orthogonalEdgeStyle;rounded=0;jumpStyle=arc;orthogonalLoop=1;jettySize=auto;html=1;" parent="1" source="Pkdxxxdbt_dBAfZ66-lr-75" edge="1">
          <mxGeometry relative="1" as="geometry">
            <mxPoint x="810" y="900" as="targetPoint" />
          </mxGeometry>
        </mxCell>
        <mxCell id="Pkdxxxdbt_dBAfZ66-lr-75" value="assignments" style="shape=parallelogram;perimeter=parallelogramPerimeter;whiteSpace=wrap;html=1;fixedSize=1;" parent="1" vertex="1">
          <mxGeometry x="780" y="610" width="146" height="60" as="geometry" />
        </mxCell>
        <mxCell id="Pkdxxxdbt_dBAfZ66-lr-97" style="edgeStyle=orthogonalEdgeStyle;rounded=0;jumpStyle=arc;orthogonalLoop=1;jettySize=auto;html=1;entryX=0.5;entryY=0;entryDx=0;entryDy=0;" parent="1" source="Pkdxxxdbt_dBAfZ66-lr-76" target="Pkdxxxdbt_dBAfZ66-lr-53" edge="1">
          <mxGeometry relative="1" as="geometry">
            <mxPoint x="1080" y="710" as="targetPoint" />
          </mxGeometry>
        </mxCell>
        <mxCell id="Pkdxxxdbt_dBAfZ66-lr-76" value="unassigned Tracks" style="shape=parallelogram;perimeter=parallelogramPerimeter;whiteSpace=wrap;html=1;fixedSize=1;" parent="1" vertex="1">
          <mxGeometry x="941" y="610" width="140" height="60" as="geometry" />
        </mxCell>
        <mxCell id="Pkdxxxdbt_dBAfZ66-lr-96" style="edgeStyle=orthogonalEdgeStyle;rounded=0;jumpStyle=arc;orthogonalLoop=1;jettySize=auto;html=1;exitX=0.5;exitY=1;exitDx=0;exitDy=0;entryX=0.5;entryY=0;entryDx=0;entryDy=0;" parent="1" source="Pkdxxxdbt_dBAfZ66-lr-77" target="Pkdxxxdbt_dBAfZ66-lr-53" edge="1">
          <mxGeometry relative="1" as="geometry">
            <mxPoint x="1080" y="710" as="targetPoint" />
          </mxGeometry>
        </mxCell>
        <mxCell id="Pkdxxxdbt_dBAfZ66-lr-77" value="unassigned meas" style="shape=parallelogram;perimeter=parallelogramPerimeter;whiteSpace=wrap;html=1;fixedSize=1;" parent="1" vertex="1">
          <mxGeometry x="1101" y="610" width="140" height="60" as="geometry" />
        </mxCell>
        <mxCell id="Pkdxxxdbt_dBAfZ66-lr-111" style="edgeStyle=orthogonalEdgeStyle;rounded=0;jumpStyle=arc;orthogonalLoop=1;jettySize=auto;html=1;entryX=0.5;entryY=0;entryDx=0;entryDy=0;" parent="1" source="Pkdxxxdbt_dBAfZ66-lr-78" target="Pkdxxxdbt_dBAfZ66-lr-58" edge="1">
          <mxGeometry relative="1" as="geometry" />
        </mxCell>
        <mxCell id="Pkdxxxdbt_dBAfZ66-lr-78" value="assignments" style="shape=parallelogram;perimeter=parallelogramPerimeter;whiteSpace=wrap;html=1;fixedSize=1;" parent="1" vertex="1">
          <mxGeometry x="870" y="800" width="146" height="60" as="geometry" />
        </mxCell>
        <mxCell id="Pkdxxxdbt_dBAfZ66-lr-79" value="unassigned Tracks" style="shape=parallelogram;perimeter=parallelogramPerimeter;whiteSpace=wrap;html=1;fixedSize=1;" parent="1" vertex="1">
          <mxGeometry x="1027" y="800" width="140" height="60" as="geometry" />
        </mxCell>
        <mxCell id="Pkdxxxdbt_dBAfZ66-lr-80" value="unassigned meas" style="shape=parallelogram;perimeter=parallelogramPerimeter;whiteSpace=wrap;html=1;fixedSize=1;" parent="1" vertex="1">
          <mxGeometry x="1180" y="800" width="140" height="60" as="geometry" />
        </mxCell>
        <mxCell id="Pkdxxxdbt_dBAfZ66-lr-108" style="edgeStyle=orthogonalEdgeStyle;rounded=0;jumpStyle=arc;orthogonalLoop=1;jettySize=auto;html=1;" parent="1" source="Pkdxxxdbt_dBAfZ66-lr-81" edge="1">
          <mxGeometry relative="1" as="geometry">
            <mxPoint x="810" y="1100" as="targetPoint" />
            <Array as="points">
              <mxPoint x="643" y="1070" />
              <mxPoint x="810" y="1070" />
            </Array>
          </mxGeometry>
        </mxCell>
        <mxCell id="Pkdxxxdbt_dBAfZ66-lr-81" value="assignments" style="shape=parallelogram;perimeter=parallelogramPerimeter;whiteSpace=wrap;html=1;fixedSize=1;" parent="1" vertex="1">
          <mxGeometry x="570" y="1000" width="146" height="60" as="geometry" />
        </mxCell>
        <mxCell id="Pkdxxxdbt_dBAfZ66-lr-106" style="edgeStyle=orthogonalEdgeStyle;rounded=0;jumpStyle=arc;orthogonalLoop=1;jettySize=auto;html=1;entryX=0.5;entryY=0;entryDx=0;entryDy=0;" parent="1" source="Pkdxxxdbt_dBAfZ66-lr-82" target="Pkdxxxdbt_dBAfZ66-lr-62" edge="1">
          <mxGeometry relative="1" as="geometry" />
        </mxCell>
        <mxCell id="Pkdxxxdbt_dBAfZ66-lr-82" value="unassigned Tracks" style="shape=parallelogram;perimeter=parallelogramPerimeter;whiteSpace=wrap;html=1;fixedSize=1;" parent="1" vertex="1">
          <mxGeometry x="740" y="1000" width="140" height="60" as="geometry" />
        </mxCell>
        <mxCell id="Pkdxxxdbt_dBAfZ66-lr-109" style="edgeStyle=orthogonalEdgeStyle;rounded=0;jumpStyle=arc;orthogonalLoop=1;jettySize=auto;html=1;entryX=0.5;entryY=0;entryDx=0;entryDy=0;" parent="1" source="Pkdxxxdbt_dBAfZ66-lr-83" target="Pkdxxxdbt_dBAfZ66-lr-62" edge="1">
          <mxGeometry relative="1" as="geometry">
            <Array as="points">
              <mxPoint x="996" y="1070" />
              <mxPoint x="810" y="1070" />
            </Array>
          </mxGeometry>
        </mxCell>
        <mxCell id="Pkdxxxdbt_dBAfZ66-lr-83" value="unassigned meas" style="shape=parallelogram;perimeter=parallelogramPerimeter;whiteSpace=wrap;html=1;fixedSize=1;" parent="1" vertex="1">
          <mxGeometry x="926" y="1000" width="140" height="60" as="geometry" />
        </mxCell>
        <mxCell id="ZLj0fXw2Sk4aRiUQEcRr-30" style="edgeStyle=orthogonalEdgeStyle;rounded=0;orthogonalLoop=1;jettySize=auto;html=1;" parent="1" source="ZLj0fXw2Sk4aRiUQEcRr-1" edge="1">
          <mxGeometry relative="1" as="geometry">
            <mxPoint x="-440" y="1660" as="targetPoint" />
          </mxGeometry>
        </mxCell>
        <mxCell id="ZLj0fXw2Sk4aRiUQEcRr-1" value="&lt;span style=&quot;font-size:12.0pt;font-family:微软雅黑;&lt;br/&gt;mso-ascii-font-family:Consolas;mso-fareast-font-family:微软雅黑;mso-bidi-font-family:&lt;br/&gt;+mn-cs;mso-bidi-theme-font:major-bidi;color:black;mso-color-index:1;mso-font-kerning:&lt;br/&gt;1.0pt;language:zh-CN;font-weight:bold;mso-style-textfill-type:solid;mso-style-textfill-fill-themecolor:&lt;br/&gt;text1;mso-style-textfill-fill-color:black;mso-style-textfill-fill-alpha:100.0%&quot;&gt;获取融合的状态值&lt;/span&gt;" style="rounded=0;whiteSpace=wrap;html=1;" parent="1" vertex="1">
          <mxGeometry x="-500" y="1560" width="120" height="60" as="geometry" />
        </mxCell>
        <mxCell id="ZLj0fXw2Sk4aRiUQEcRr-31" style="edgeStyle=orthogonalEdgeStyle;rounded=0;orthogonalLoop=1;jettySize=auto;html=1;entryX=0.5;entryY=0;entryDx=0;entryDy=0;" parent="1" source="ZLj0fXw2Sk4aRiUQEcRr-2" target="ZLj0fXw2Sk4aRiUQEcRr-1" edge="1">
          <mxGeometry relative="1" as="geometry" />
        </mxCell>
        <mxCell id="ZLj0fXw2Sk4aRiUQEcRr-2" value="开始" style="rounded=1;whiteSpace=wrap;html=1;" parent="1" vertex="1">
          <mxGeometry x="-500" y="1450" width="120" height="60" as="geometry" />
        </mxCell>
        <mxCell id="ZLj0fXw2Sk4aRiUQEcRr-29" style="edgeStyle=orthogonalEdgeStyle;rounded=0;orthogonalLoop=1;jettySize=auto;html=1;entryX=0.519;entryY=0;entryDx=0;entryDy=0;entryPerimeter=0;" parent="1" source="ZLj0fXw2Sk4aRiUQEcRr-3" target="ZLj0fXw2Sk4aRiUQEcRr-27" edge="1">
          <mxGeometry relative="1" as="geometry" />
        </mxCell>
        <mxCell id="ZLj0fXw2Sk4aRiUQEcRr-3" value="&lt;span style=&quot;font-size:12.0pt;font-family:微软雅黑;&lt;br/&gt;mso-ascii-font-family:Consolas;mso-fareast-font-family:微软雅黑;mso-bidi-font-family:&lt;br/&gt;+mn-cs;mso-bidi-theme-font:minor-bidi;color:black;mso-color-index:1;mso-font-kerning:&lt;br/&gt;1.0pt;language:zh-CN;mso-style-textfill-type:solid;mso-style-textfill-fill-themecolor:&lt;br/&gt;text1;mso-style-textfill-fill-color:black;mso-style-textfill-fill-alpha:100.0%&quot;&gt;获取协方差矩阵&lt;/span&gt;" style="rounded=0;whiteSpace=wrap;html=1;" parent="1" vertex="1">
          <mxGeometry x="-500" y="1664" width="120" height="60" as="geometry" />
        </mxCell>
        <mxCell id="ZLj0fXw2Sk4aRiUQEcRr-19" style="edgeStyle=orthogonalEdgeStyle;rounded=0;orthogonalLoop=1;jettySize=auto;html=1;entryX=0.5;entryY=0;entryDx=0;entryDy=0;" parent="1" source="ZLj0fXw2Sk4aRiUQEcRr-5" target="ZLj0fXw2Sk4aRiUQEcRr-6" edge="1">
          <mxGeometry relative="1" as="geometry" />
        </mxCell>
        <mxCell id="ZLj0fXw2Sk4aRiUQEcRr-5" value="&lt;span style=&quot;font-size:12.0pt;font-family:微软雅黑;&lt;br/&gt;mso-ascii-font-family:Consolas;mso-fareast-font-family:微软雅黑;mso-bidi-font-family:&lt;br/&gt;+mn-cs;mso-bidi-theme-font:minor-bidi;color:black;mso-color-index:1;mso-font-kerning:&lt;br/&gt;1.0pt;language:zh-CN;mso-style-textfill-type:solid;mso-style-textfill-fill-themecolor:&lt;br/&gt;text1;mso-style-textfill-fill-color:black;mso-style-textfill-fill-alpha:100.0%&quot;&gt;更新状态转移矩阵&lt;/span&gt;" style="rounded=0;whiteSpace=wrap;html=1;" parent="1" vertex="1">
          <mxGeometry x="-670" y="1820" width="120" height="60" as="geometry" />
        </mxCell>
        <mxCell id="ZLj0fXw2Sk4aRiUQEcRr-20" style="edgeStyle=orthogonalEdgeStyle;rounded=0;orthogonalLoop=1;jettySize=auto;html=1;entryX=0.5;entryY=0;entryDx=0;entryDy=0;" parent="1" source="ZLj0fXw2Sk4aRiUQEcRr-6" target="ZLj0fXw2Sk4aRiUQEcRr-7" edge="1">
          <mxGeometry relative="1" as="geometry" />
        </mxCell>
        <mxCell id="ZLj0fXw2Sk4aRiUQEcRr-6" value="&lt;span style=&quot;font-size:12.0pt;font-family:微软雅黑;&lt;br/&gt;mso-ascii-font-family:Consolas;mso-fareast-font-family:微软雅黑;mso-bidi-font-family:&lt;br/&gt;+mn-cs;mso-bidi-theme-font:major-bidi;color:black;mso-color-index:1;mso-font-kerning:&lt;br/&gt;1.0pt;language:zh-CN;mso-style-textfill-type:solid;mso-style-textfill-fill-themecolor:&lt;br/&gt;text1;mso-style-textfill-fill-color:black;mso-style-textfill-fill-alpha:100.0%&quot;&gt;状态预测&lt;/span&gt;" style="rounded=0;whiteSpace=wrap;html=1;" parent="1" vertex="1">
          <mxGeometry x="-670" y="1910" width="120" height="60" as="geometry" />
        </mxCell>
        <mxCell id="ZLj0fXw2Sk4aRiUQEcRr-21" style="edgeStyle=orthogonalEdgeStyle;rounded=0;orthogonalLoop=1;jettySize=auto;html=1;entryX=0.5;entryY=0;entryDx=0;entryDy=0;" parent="1" source="ZLj0fXw2Sk4aRiUQEcRr-7" target="ZLj0fXw2Sk4aRiUQEcRr-8" edge="1">
          <mxGeometry relative="1" as="geometry" />
        </mxCell>
        <mxCell id="ZLj0fXw2Sk4aRiUQEcRr-7" value="&lt;span style=&quot;font-size:12.0pt;font-family:微软雅黑;&lt;br/&gt;mso-ascii-font-family:Consolas;mso-fareast-font-family:微软雅黑;mso-bidi-font-family:&lt;br/&gt;+mn-cs;mso-bidi-theme-font:minor-bidi;color:black;mso-color-index:1;mso-font-kerning:&lt;br/&gt;1.0pt;language:zh-CN;mso-style-textfill-type:solid;mso-style-textfill-fill-themecolor:&lt;br/&gt;text1;mso-style-textfill-fill-color:black;mso-style-textfill-fill-alpha:100.0%&quot;&gt;更新状态协方差矩阵&lt;/span&gt;" style="rounded=0;whiteSpace=wrap;html=1;" parent="1" vertex="1">
          <mxGeometry x="-670" y="2000" width="120" height="60" as="geometry" />
        </mxCell>
        <mxCell id="ZLj0fXw2Sk4aRiUQEcRr-17" style="edgeStyle=orthogonalEdgeStyle;rounded=0;orthogonalLoop=1;jettySize=auto;html=1;entryX=-0.002;entryY=0.418;entryDx=0;entryDy=0;entryPerimeter=0;" parent="1" source="ZLj0fXw2Sk4aRiUQEcRr-8" target="ZLj0fXw2Sk4aRiUQEcRr-9" edge="1">
          <mxGeometry relative="1" as="geometry" />
        </mxCell>
        <mxCell id="ZLj0fXw2Sk4aRiUQEcRr-8" value="&lt;span style=&quot;font-size:12.0pt;font-family:微软雅黑;&lt;br/&gt;mso-ascii-font-family:Consolas;mso-fareast-font-family:微软雅黑;mso-bidi-font-family:&lt;br/&gt;+mn-cs;mso-bidi-theme-font:minor-bidi;color:black;mso-color-index:1;background:&lt;br/&gt;lime;mso-highlight:lime;mso-font-kerning:1.0pt;language:zh-CN;mso-style-textfill-type:&lt;br/&gt;solid;mso-style-textfill-fill-themecolor:text1;mso-style-textfill-fill-color:&lt;br/&gt;black;mso-style-textfill-fill-alpha:100.0%&quot;&gt;更新观测向量&lt;/span&gt;" style="rounded=0;whiteSpace=wrap;html=1;" parent="1" vertex="1">
          <mxGeometry x="-670" y="2090" width="120" height="60" as="geometry" />
        </mxCell>
        <mxCell id="ZLj0fXw2Sk4aRiUQEcRr-22" style="edgeStyle=orthogonalEdgeStyle;rounded=0;orthogonalLoop=1;jettySize=auto;html=1;entryX=0.5;entryY=0;entryDx=0;entryDy=0;" parent="1" source="ZLj0fXw2Sk4aRiUQEcRr-9" target="ZLj0fXw2Sk4aRiUQEcRr-10" edge="1">
          <mxGeometry relative="1" as="geometry" />
        </mxCell>
        <mxCell id="ZLj0fXw2Sk4aRiUQEcRr-9" value="&lt;span style=&quot;font-size:12.0pt;font-family:微软雅黑;&lt;br/&gt;mso-ascii-font-family:Consolas;mso-fareast-font-family:微软雅黑;mso-bidi-font-family:&lt;br/&gt;+mn-cs;mso-bidi-theme-font:major-bidi;color:black;mso-color-index:1;mso-font-kerning:&lt;br/&gt;1.0pt;language:zh-CN;mso-style-textfill-type:solid;mso-style-textfill-fill-themecolor:&lt;br/&gt;text1;mso-style-textfill-fill-color:black;mso-style-textfill-fill-alpha:100.0%&quot;&gt;更新观测协方差矩阵&lt;/span&gt;" style="rounded=0;whiteSpace=wrap;html=1;" parent="1" vertex="1">
          <mxGeometry x="-500" y="1820" width="120" height="60" as="geometry" />
        </mxCell>
        <mxCell id="ZLj0fXw2Sk4aRiUQEcRr-23" style="edgeStyle=orthogonalEdgeStyle;rounded=0;orthogonalLoop=1;jettySize=auto;html=1;entryX=0.5;entryY=0;entryDx=0;entryDy=0;" parent="1" source="ZLj0fXw2Sk4aRiUQEcRr-10" target="ZLj0fXw2Sk4aRiUQEcRr-12" edge="1">
          <mxGeometry relative="1" as="geometry" />
        </mxCell>
        <mxCell id="ZLj0fXw2Sk4aRiUQEcRr-10" value="&lt;span style=&quot;font-size:12.0pt;font-family:微软雅黑;&lt;br/&gt;mso-ascii-font-family:Consolas;mso-fareast-font-family:微软雅黑;mso-bidi-font-family:&lt;br/&gt;+mn-cs;mso-bidi-theme-font:major-bidi;color:black;mso-color-index:1;mso-font-kerning:&lt;br/&gt;1.0pt;language:zh-CN;mso-style-textfill-type:solid;mso-style-textfill-fill-themecolor:&lt;br/&gt;text1;mso-style-textfill-fill-color:black;mso-style-textfill-fill-alpha:100.0%&quot;&gt;计算&lt;/span&gt;&lt;span style=&quot;font-size:12.0pt;font-family:Consolas;mso-ascii-font-family:Consolas;&lt;br/&gt;mso-fareast-font-family:微软雅黑;mso-bidi-font-family:+mn-cs;mso-bidi-theme-font:&lt;br/&gt;major-bidi;color:black;mso-color-index:1;mso-font-kerning:1.0pt;language:en-US;&lt;br/&gt;mso-style-textfill-type:solid;mso-style-textfill-fill-themecolor:text1;&lt;br/&gt;mso-style-textfill-fill-color:black;mso-style-textfill-fill-alpha:100.0%&quot;&gt;kalman&lt;/span&gt;&lt;span style=&quot;font-size:12.0pt;font-family:微软雅黑;mso-ascii-font-family:Consolas;&lt;br/&gt;mso-fareast-font-family:微软雅黑;mso-bidi-font-family:+mn-cs;mso-bidi-theme-font:&lt;br/&gt;major-bidi;color:black;mso-color-index:1;mso-font-kerning:1.0pt;language:zh-CN;&lt;br/&gt;mso-style-textfill-type:solid;mso-style-textfill-fill-themecolor:text1;&lt;br/&gt;mso-style-textfill-fill-color:black;mso-style-textfill-fill-alpha:100.0%&quot;&gt;增益&lt;/span&gt;" style="rounded=0;whiteSpace=wrap;html=1;" parent="1" vertex="1">
          <mxGeometry x="-500" y="1910" width="120" height="60" as="geometry" />
        </mxCell>
        <mxCell id="ZLj0fXw2Sk4aRiUQEcRr-24" style="edgeStyle=orthogonalEdgeStyle;rounded=0;orthogonalLoop=1;jettySize=auto;html=1;entryX=0.5;entryY=0;entryDx=0;entryDy=0;" parent="1" source="ZLj0fXw2Sk4aRiUQEcRr-12" target="ZLj0fXw2Sk4aRiUQEcRr-13" edge="1">
          <mxGeometry relative="1" as="geometry" />
        </mxCell>
        <mxCell id="ZLj0fXw2Sk4aRiUQEcRr-12" value="&lt;span style=&quot;font-size:12.0pt;font-family:微软雅黑;&lt;br/&gt;mso-ascii-font-family:Consolas;mso-fareast-font-family:微软雅黑;mso-bidi-font-family:&lt;br/&gt;+mn-cs;mso-bidi-theme-font:major-bidi;color:black;mso-color-index:1;mso-font-kerning:&lt;br/&gt;1.0pt;language:zh-CN;mso-style-textfill-type:solid;mso-style-textfill-fill-themecolor:&lt;br/&gt;text1;mso-style-textfill-fill-color:black;mso-style-textfill-fill-alpha:100.0%&quot;&gt;更新后验证状态&lt;/span&gt;" style="rounded=0;whiteSpace=wrap;html=1;" parent="1" vertex="1">
          <mxGeometry x="-500" y="2000" width="120" height="60" as="geometry" />
        </mxCell>
        <mxCell id="ZLj0fXw2Sk4aRiUQEcRr-18" style="edgeStyle=orthogonalEdgeStyle;rounded=0;orthogonalLoop=1;jettySize=auto;html=1;entryX=0;entryY=0.5;entryDx=0;entryDy=0;" parent="1" source="ZLj0fXw2Sk4aRiUQEcRr-13" target="ZLj0fXw2Sk4aRiUQEcRr-14" edge="1">
          <mxGeometry relative="1" as="geometry" />
        </mxCell>
        <mxCell id="ZLj0fXw2Sk4aRiUQEcRr-13" value="&lt;span style=&quot;font-size:12.0pt;font-family:微软雅黑;&lt;br/&gt;mso-ascii-font-family:Consolas;mso-fareast-font-family:微软雅黑;mso-bidi-font-family:&lt;br/&gt;+mn-cs;mso-bidi-theme-font:minor-bidi;color:black;mso-color-index:1;mso-font-kerning:&lt;br/&gt;1.0pt;language:zh-CN;mso-style-textfill-type:solid;mso-style-textfill-fill-themecolor:&lt;br/&gt;text1;mso-style-textfill-fill-color:black;mso-style-textfill-fill-alpha:100.0%&quot;&gt;更新后验状态协方差&lt;/span&gt;" style="rounded=0;whiteSpace=wrap;html=1;" parent="1" vertex="1">
          <mxGeometry x="-500" y="2090" width="120" height="60" as="geometry" />
        </mxCell>
        <mxCell id="ZLj0fXw2Sk4aRiUQEcRr-25" style="edgeStyle=orthogonalEdgeStyle;rounded=0;orthogonalLoop=1;jettySize=auto;html=1;entryX=0.5;entryY=0;entryDx=0;entryDy=0;" parent="1" source="ZLj0fXw2Sk4aRiUQEcRr-14" target="ZLj0fXw2Sk4aRiUQEcRr-15" edge="1">
          <mxGeometry relative="1" as="geometry" />
        </mxCell>
        <mxCell id="ZLj0fXw2Sk4aRiUQEcRr-14" value="&lt;span style=&quot;font-size:12.0pt;font-family:微软雅黑;&lt;br/&gt;mso-ascii-font-family:Consolas;mso-fareast-font-family:微软雅黑;mso-bidi-font-family:&lt;br/&gt;+mn-cs;mso-bidi-theme-font:minor-bidi;color:black;mso-color-index:1;mso-font-kerning:&lt;br/&gt;1.0pt;language:zh-CN;mso-style-textfill-type:solid;mso-style-textfill-fill-themecolor:&lt;br/&gt;text1;mso-style-textfill-fill-color:black;mso-style-textfill-fill-alpha:100.0%&quot;&gt;使用后验状态更新跟踪状态值&lt;/span&gt;" style="rounded=0;whiteSpace=wrap;html=1;" parent="1" vertex="1">
          <mxGeometry x="-340" y="1820" width="120" height="60" as="geometry" />
        </mxCell>
        <mxCell id="ZLj0fXw2Sk4aRiUQEcRr-26" style="edgeStyle=orthogonalEdgeStyle;rounded=0;orthogonalLoop=1;jettySize=auto;html=1;entryX=0.5;entryY=0;entryDx=0;entryDy=0;" parent="1" source="ZLj0fXw2Sk4aRiUQEcRr-15" target="ZLj0fXw2Sk4aRiUQEcRr-16" edge="1">
          <mxGeometry relative="1" as="geometry" />
        </mxCell>
        <mxCell id="ZLj0fXw2Sk4aRiUQEcRr-15" value="&lt;span style=&quot;font-size:12.0pt;font-family:微软雅黑;&lt;br/&gt;mso-ascii-font-family:Consolas;mso-fareast-font-family:微软雅黑;mso-bidi-font-family:&lt;br/&gt;+mn-cs;mso-bidi-theme-font:minor-bidi;color:black;mso-color-index:1;background:&lt;br/&gt;lime;mso-highlight:lime;mso-font-kerning:1.0pt;language:zh-CN;mso-style-textfill-type:&lt;br/&gt;solid;mso-style-textfill-fill-themecolor:text1;mso-style-textfill-fill-color:&lt;br/&gt;black;mso-style-textfill-fill-alpha:100.0%&quot;&gt;更新&lt;/span&gt;&lt;span style=&quot;font-size:&lt;br/&gt;12.0pt;font-family:Consolas;mso-ascii-font-family:Consolas;mso-fareast-font-family:&lt;br/&gt;微软雅黑;mso-bidi-font-family:+mn-cs;mso-bidi-theme-font:minor-bidi;color:black;&lt;br/&gt;mso-color-index:1;background:lime;mso-highlight:lime;mso-font-kerning:1.0pt;&lt;br/&gt;language:en-US;mso-style-textfill-type:solid;mso-style-textfill-fill-themecolor:&lt;br/&gt;text1;mso-style-textfill-fill-color:black;mso-style-textfill-fill-alpha:100.0%&quot;&gt;yaw&lt;br/&gt;angle&lt;/span&gt;&lt;span style=&quot;font-size:12.0pt;font-family:微软雅黑;mso-ascii-font-family:&lt;br/&gt;Consolas;mso-fareast-font-family:微软雅黑;mso-bidi-font-family:+mn-cs;mso-bidi-theme-font:&lt;br/&gt;minor-bidi;color:black;mso-color-index:1;background:lime;mso-highlight:lime;&lt;br/&gt;mso-font-kerning:1.0pt;language:zh-CN;mso-style-textfill-type:solid;mso-style-textfill-fill-themecolor:&lt;br/&gt;text1;mso-style-textfill-fill-color:black;mso-style-textfill-fill-alpha:100.0%&quot;&gt;的状态&lt;/span&gt;" style="rounded=0;whiteSpace=wrap;html=1;" parent="1" vertex="1">
          <mxGeometry x="-340" y="1910" width="120" height="60" as="geometry" />
        </mxCell>
        <mxCell id="ZLj0fXw2Sk4aRiUQEcRr-16" value="&lt;span style=&quot;font-size:12.0pt;font-family:微软雅黑;&lt;br/&gt;mso-ascii-font-family:Consolas;mso-fareast-font-family:微软雅黑;mso-bidi-font-family:&lt;br/&gt;+mn-cs;mso-bidi-theme-font:minor-bidi;color:black;mso-color-index:1;mso-font-kerning:&lt;br/&gt;1.0pt;language:zh-CN;mso-style-textfill-type:solid;mso-style-textfill-fill-themecolor:&lt;br/&gt;text1;mso-style-textfill-fill-color:black;mso-style-textfill-fill-alpha:100.0%&quot;&gt;加速度更新&lt;/span&gt;" style="rounded=0;whiteSpace=wrap;html=1;" parent="1" vertex="1">
          <mxGeometry x="-340" y="2000" width="120" height="60" as="geometry" />
        </mxCell>
        <mxCell id="ZLj0fXw2Sk4aRiUQEcRr-28" value="&lt;span style=&quot;font-size:12.0pt;font-family:微软雅黑;&lt;br/&gt;mso-ascii-font-family:Consolas;mso-fareast-font-family:微软雅黑;mso-bidi-font-family:&lt;br/&gt;+mn-cs;mso-bidi-theme-font:major-bidi;color:black;mso-color-index:1;mso-font-kerning:&lt;br/&gt;1.0pt;language:zh-CN;font-weight:bold;mso-style-textfill-type:solid;mso-style-textfill-fill-themecolor:&lt;br/&gt;text1;mso-style-textfill-fill-color:black;mso-style-textfill-fill-alpha:100.0%&quot;&gt;更新跟踪状态&lt;/span&gt;" style="text;html=1;strokeColor=none;fillColor=none;align=center;verticalAlign=middle;whiteSpace=wrap;rounded=0;" parent="1" vertex="1">
          <mxGeometry x="-491.5" y="1780" width="103" height="30" as="geometry" />
        </mxCell>
        <mxCell id="ZLj0fXw2Sk4aRiUQEcRr-32" value="结束" style="rounded=1;whiteSpace=wrap;html=1;" parent="1" vertex="1">
          <mxGeometry x="-510" y="2230" width="120" height="60" as="geometry" />
        </mxCell>
        <mxCell id="ZLj0fXw2Sk4aRiUQEcRr-38" style="edgeStyle=orthogonalEdgeStyle;rounded=0;orthogonalLoop=1;jettySize=auto;html=1;entryX=0.5;entryY=0;entryDx=0;entryDy=0;" parent="1" source="ZLj0fXw2Sk4aRiUQEcRr-36" target="ZLj0fXw2Sk4aRiUQEcRr-37" edge="1">
          <mxGeometry relative="1" as="geometry" />
        </mxCell>
        <mxCell id="ZLj0fXw2Sk4aRiUQEcRr-36" value="开始" style="rounded=1;whiteSpace=wrap;html=1;" parent="1" vertex="1">
          <mxGeometry x="210" y="1510" width="120" height="60" as="geometry" />
        </mxCell>
        <mxCell id="ZLj0fXw2Sk4aRiUQEcRr-44" style="edgeStyle=orthogonalEdgeStyle;rounded=0;orthogonalLoop=1;jettySize=auto;html=1;entryX=0.5;entryY=0;entryDx=0;entryDy=0;" parent="1" source="ZLj0fXw2Sk4aRiUQEcRr-37" target="ZLj0fXw2Sk4aRiUQEcRr-40" edge="1">
          <mxGeometry relative="1" as="geometry" />
        </mxCell>
        <mxCell id="ZLj0fXw2Sk4aRiUQEcRr-37" value="根据连续未跟踪时长删除跟踪器" style="rounded=0;whiteSpace=wrap;html=1;" parent="1" vertex="1">
          <mxGeometry x="210" y="1600" width="120" height="60" as="geometry" />
        </mxCell>
        <mxCell id="ZLj0fXw2Sk4aRiUQEcRr-46" style="edgeStyle=orthogonalEdgeStyle;rounded=0;orthogonalLoop=1;jettySize=auto;html=1;entryX=0.5;entryY=0;entryDx=0;entryDy=0;" parent="1" source="ZLj0fXw2Sk4aRiUQEcRr-39" target="ZLj0fXw2Sk4aRiUQEcRr-42" edge="1">
          <mxGeometry relative="1" as="geometry" />
        </mxCell>
        <mxCell id="ZLj0fXw2Sk4aRiUQEcRr-39" value="对航迹位置执行匀速运动补偿" style="rounded=0;whiteSpace=wrap;html=1;" parent="1" vertex="1">
          <mxGeometry x="210" y="1800" width="120" height="60" as="geometry" />
        </mxCell>
        <mxCell id="ZLj0fXw2Sk4aRiUQEcRr-45" style="edgeStyle=orthogonalEdgeStyle;rounded=0;orthogonalLoop=1;jettySize=auto;html=1;entryX=0.5;entryY=0;entryDx=0;entryDy=0;" parent="1" source="ZLj0fXw2Sk4aRiUQEcRr-40" target="ZLj0fXw2Sk4aRiUQEcRr-39" edge="1">
          <mxGeometry relative="1" as="geometry">
            <Array as="points">
              <mxPoint x="270" y="1780" />
              <mxPoint x="270" y="1780" />
            </Array>
          </mxGeometry>
        </mxCell>
        <mxCell id="ZLj0fXw2Sk4aRiUQEcRr-48" value="N" style="edgeLabel;html=1;align=center;verticalAlign=middle;resizable=0;points=[];" parent="ZLj0fXw2Sk4aRiUQEcRr-45" vertex="1" connectable="0">
          <mxGeometry x="-0.2958" y="1" relative="1" as="geometry">
            <mxPoint as="offset" />
          </mxGeometry>
        </mxCell>
        <mxCell id="ZLj0fXw2Sk4aRiUQEcRr-49" style="edgeStyle=orthogonalEdgeStyle;rounded=0;orthogonalLoop=1;jettySize=auto;html=1;entryX=0.999;entryY=0.552;entryDx=0;entryDy=0;entryPerimeter=0;" parent="1" source="ZLj0fXw2Sk4aRiUQEcRr-40" target="ZLj0fXw2Sk4aRiUQEcRr-43" edge="1">
          <mxGeometry relative="1" as="geometry">
            <Array as="points">
              <mxPoint x="350" y="1720" />
              <mxPoint x="350" y="2013" />
            </Array>
          </mxGeometry>
        </mxCell>
        <mxCell id="ZLj0fXw2Sk4aRiUQEcRr-50" value="Y" style="edgeLabel;html=1;align=center;verticalAlign=middle;resizable=0;points=[];" parent="ZLj0fXw2Sk4aRiUQEcRr-49" vertex="1" connectable="0">
          <mxGeometry x="-0.2081" relative="1" as="geometry">
            <mxPoint as="offset" />
          </mxGeometry>
        </mxCell>
        <mxCell id="ZLj0fXw2Sk4aRiUQEcRr-40" value="删除?" style="rhombus;whiteSpace=wrap;html=1;" parent="1" vertex="1">
          <mxGeometry x="230" y="1680" width="80" height="80" as="geometry" />
        </mxCell>
        <mxCell id="ZLj0fXw2Sk4aRiUQEcRr-47" style="edgeStyle=orthogonalEdgeStyle;rounded=0;orthogonalLoop=1;jettySize=auto;html=1;entryX=0.5;entryY=0;entryDx=0;entryDy=0;" parent="1" source="ZLj0fXw2Sk4aRiUQEcRr-42" target="ZLj0fXw2Sk4aRiUQEcRr-43" edge="1">
          <mxGeometry relative="1" as="geometry" />
        </mxCell>
        <mxCell id="ZLj0fXw2Sk4aRiUQEcRr-42" value="统计连续未跟踪时长" style="rounded=0;whiteSpace=wrap;html=1;" parent="1" vertex="1">
          <mxGeometry x="210" y="1890" width="120" height="60" as="geometry" />
        </mxCell>
        <mxCell id="ZLj0fXw2Sk4aRiUQEcRr-43" value="结束" style="rounded=1;whiteSpace=wrap;html=1;" parent="1" vertex="1">
          <mxGeometry x="210" y="1980" width="120" height="60" as="geometry" />
        </mxCell>
        <mxCell id="4qVyWYOQ_H-MjT7jH4a1-6" style="edgeStyle=orthogonalEdgeStyle;rounded=0;orthogonalLoop=1;jettySize=auto;html=1;entryX=0.5;entryY=0;entryDx=0;entryDy=0;" edge="1" parent="1" source="4qVyWYOQ_H-MjT7jH4a1-1" target="4qVyWYOQ_H-MjT7jH4a1-2">
          <mxGeometry relative="1" as="geometry" />
        </mxCell>
        <mxCell id="4qVyWYOQ_H-MjT7jH4a1-1" value="开始" style="rounded=1;whiteSpace=wrap;html=1;" vertex="1" parent="1">
          <mxGeometry x="720" y="1530" width="120" height="60" as="geometry" />
        </mxCell>
        <mxCell id="4qVyWYOQ_H-MjT7jH4a1-5" style="edgeStyle=orthogonalEdgeStyle;rounded=0;orthogonalLoop=1;jettySize=auto;html=1;entryX=0.5;entryY=0;entryDx=0;entryDy=0;" edge="1" parent="1" source="4qVyWYOQ_H-MjT7jH4a1-2" target="4qVyWYOQ_H-MjT7jH4a1-4">
          <mxGeometry relative="1" as="geometry" />
        </mxCell>
        <mxCell id="4qVyWYOQ_H-MjT7jH4a1-2" value="判定该观测是否允许创建新航迹" style="rounded=0;whiteSpace=wrap;html=1;" vertex="1" parent="1">
          <mxGeometry x="720" y="1630" width="120" height="60" as="geometry" />
        </mxCell>
        <mxCell id="4qVyWYOQ_H-MjT7jH4a1-29" style="edgeStyle=orthogonalEdgeStyle;rounded=0;orthogonalLoop=1;jettySize=auto;html=1;" edge="1" parent="1" source="4qVyWYOQ_H-MjT7jH4a1-4" target="4qVyWYOQ_H-MjT7jH4a1-9">
          <mxGeometry relative="1" as="geometry" />
        </mxCell>
        <mxCell id="4qVyWYOQ_H-MjT7jH4a1-30" value="Y" style="edgeLabel;html=1;align=center;verticalAlign=middle;resizable=0;points=[];" vertex="1" connectable="0" parent="4qVyWYOQ_H-MjT7jH4a1-29">
          <mxGeometry x="-0.2152" y="-1" relative="1" as="geometry">
            <mxPoint as="offset" />
          </mxGeometry>
        </mxCell>
        <mxCell id="4qVyWYOQ_H-MjT7jH4a1-31" style="edgeStyle=orthogonalEdgeStyle;rounded=0;orthogonalLoop=1;jettySize=auto;html=1;entryX=1;entryY=0.5;entryDx=0;entryDy=0;" edge="1" parent="1" source="4qVyWYOQ_H-MjT7jH4a1-4" target="4qVyWYOQ_H-MjT7jH4a1-27">
          <mxGeometry relative="1" as="geometry">
            <mxPoint x="1030" y="2600" as="targetPoint" />
            <Array as="points">
              <mxPoint x="1030" y="1753" />
              <mxPoint x="1030" y="2550" />
            </Array>
          </mxGeometry>
        </mxCell>
        <mxCell id="4qVyWYOQ_H-MjT7jH4a1-32" value="N" style="edgeLabel;html=1;align=center;verticalAlign=middle;resizable=0;points=[];" vertex="1" connectable="0" parent="4qVyWYOQ_H-MjT7jH4a1-31">
          <mxGeometry x="-0.43" relative="1" as="geometry">
            <mxPoint as="offset" />
          </mxGeometry>
        </mxCell>
        <mxCell id="4qVyWYOQ_H-MjT7jH4a1-4" value="创建新航迹？" style="rhombus;whiteSpace=wrap;html=1;" vertex="1" parent="1">
          <mxGeometry x="740" y="1713.5" width="80" height="80" as="geometry" />
        </mxCell>
        <mxCell id="4qVyWYOQ_H-MjT7jH4a1-12" style="edgeStyle=orthogonalEdgeStyle;rounded=0;orthogonalLoop=1;jettySize=auto;html=1;entryX=0.5;entryY=0;entryDx=0;entryDy=0;" edge="1" parent="1" source="4qVyWYOQ_H-MjT7jH4a1-9" target="4qVyWYOQ_H-MjT7jH4a1-10">
          <mxGeometry relative="1" as="geometry" />
        </mxCell>
        <mxCell id="4qVyWYOQ_H-MjT7jH4a1-9" value="获取&lt;span style=&quot;font-size:12.0pt;font-family:Consolas;&lt;br/&gt;mso-ascii-font-family:Consolas;mso-fareast-font-family:微软雅黑;mso-bidi-font-family:&lt;br/&gt;+mn-cs;mso-bidi-theme-font:minor-bidi;color:black;mso-color-index:1;mso-font-kerning:&lt;br/&gt;1.0pt;language:en-US;mso-style-textfill-type:solid;mso-style-textfill-fill-themecolor:&lt;br/&gt;text1;mso-style-textfill-fill-color:black;mso-style-textfill-fill-alpha:100.0%&quot;&gt;Track&lt;br/&gt;id&lt;/span&gt;" style="rounded=1;whiteSpace=wrap;html=1;" vertex="1" parent="1">
          <mxGeometry x="710" y="1860" width="140" height="60" as="geometry" />
        </mxCell>
        <mxCell id="4qVyWYOQ_H-MjT7jH4a1-17" style="edgeStyle=orthogonalEdgeStyle;rounded=0;orthogonalLoop=1;jettySize=auto;html=1;entryX=0.5;entryY=0;entryDx=0;entryDy=0;" edge="1" parent="1" source="4qVyWYOQ_H-MjT7jH4a1-10" target="4qVyWYOQ_H-MjT7jH4a1-13">
          <mxGeometry relative="1" as="geometry" />
        </mxCell>
        <mxCell id="4qVyWYOQ_H-MjT7jH4a1-10" value="初始化&lt;br&gt;&lt;span&gt;invisible_period&lt;/span&gt;&lt;span&gt;_ = 0; &lt;/span&gt;&lt;span&gt;tracking_period&lt;/span&gt;&lt;span&gt;_ = 0.0; &lt;/span&gt;&lt;span&gt;age_ = 0;&lt;/span&gt;&lt;span&gt;is_dead&lt;/span&gt;&lt;span&gt;_ = false;&lt;/span&gt;&lt;span&gt; &lt;/span&gt;&lt;span&gt;fused_object&lt;/span&gt;&lt;span&gt;_; &lt;/span&gt;&lt;span&gt;fused_timestamp&lt;/span&gt;&lt;span&gt;_&lt;/span&gt;&lt;span&gt;;&lt;/span&gt;&lt;span&gt; &lt;/span&gt;&lt;span&gt;sensor_type&lt;/span&gt;&lt;span&gt;;&lt;/span&gt;" style="rounded=1;whiteSpace=wrap;html=1;" vertex="1" parent="1">
          <mxGeometry x="705" y="1960" width="150" height="140" as="geometry" />
        </mxCell>
        <mxCell id="4qVyWYOQ_H-MjT7jH4a1-24" style="edgeStyle=orthogonalEdgeStyle;rounded=0;orthogonalLoop=1;jettySize=auto;html=1;entryX=0.5;entryY=0;entryDx=0;entryDy=0;" edge="1" parent="1" source="4qVyWYOQ_H-MjT7jH4a1-13" target="4qVyWYOQ_H-MjT7jH4a1-18">
          <mxGeometry relative="1" as="geometry" />
        </mxCell>
        <mxCell id="4qVyWYOQ_H-MjT7jH4a1-13" value="&lt;br/&gt;&lt;br/&gt;&lt;p style=&quot;language:zh-CN;line-height:150%;margin-top:0pt;margin-bottom:0pt;&lt;br/&gt;margin-left:0in;text-align:left;direction:ltr;unicode-bidi:embed;mso-line-break-override:&lt;br/&gt;none;word-break:normal;punctuation-wrap:hanging&quot;&gt;&lt;span style=&quot;font-size:12.0pt;&lt;br/&gt;font-family:微软雅黑;mso-ascii-font-family:Consolas;mso-fareast-font-family:微软雅黑;&lt;br/&gt;mso-bidi-font-family:+mn-cs;mso-bidi-theme-font:minor-bidi;color:black;&lt;br/&gt;mso-color-index:1;mso-font-kerning:1.0pt;language:zh-CN;mso-style-textfill-type:&lt;br/&gt;solid;mso-style-textfill-fill-themecolor:text1;mso-style-textfill-fill-color:&lt;br/&gt;black;mso-style-textfill-fill-alpha:100.0%&quot;&gt;根据传感器类型：设置&lt;/span&gt;&lt;span style=&quot;font-size:12.0pt;font-family:Consolas;mso-ascii-font-family:Consolas;&lt;br/&gt;mso-fareast-font-family:等线;mso-bidi-font-family:Consolas;color:black;&lt;br/&gt;mso-color-index:1;mso-font-kerning:1.0pt;language:en-US;mso-style-textfill-type:&lt;br/&gt;solid;mso-style-textfill-fill-themecolor:text1;mso-style-textfill-fill-color:&lt;br/&gt;black;mso-style-textfill-fill-alpha:100.0%&quot;&gt;invisible_in_radar&lt;/span&gt;&lt;span style=&quot;font-size:12.0pt;font-family:Consolas;mso-ascii-font-family:Consolas;&lt;br/&gt;mso-fareast-font-family:等线;mso-bidi-font-family:Consolas;color:black;&lt;br/&gt;mso-color-index:1;mso-font-kerning:1.0pt;language:en-US;mso-style-textfill-type:&lt;br/&gt;solid;mso-style-textfill-fill-themecolor:text1;mso-style-textfill-fill-color:&lt;br/&gt;black;mso-style-textfill-fill-alpha:100.0%&quot;&gt;_ &lt;/span&gt;&lt;span style=&quot;font-size:&lt;br/&gt;12.0pt;font-family:等线;mso-ascii-font-family:Consolas;mso-fareast-font-family:&lt;br/&gt;等线;mso-bidi-font-family:Consolas;color:black;mso-color-index:1;mso-font-kerning:&lt;br/&gt;1.0pt;language:zh-CN;mso-style-textfill-type:solid;mso-style-textfill-fill-themecolor:&lt;br/&gt;text1;mso-style-textfill-fill-color:black;mso-style-textfill-fill-alpha:100.0%&quot;&gt;、&lt;/span&gt;&lt;span style=&quot;font-size:12.0pt;font-family:Consolas;mso-ascii-font-family:Consolas;&lt;br/&gt;mso-fareast-font-family:等线;mso-bidi-font-family:Consolas;color:black;&lt;br/&gt;mso-color-index:1;mso-font-kerning:1.0pt;language:en-US;mso-style-textfill-type:&lt;br/&gt;solid;mso-style-textfill-fill-themecolor:text1;mso-style-textfill-fill-color:&lt;br/&gt;black;mso-style-textfill-fill-alpha:100.0%&quot;&gt;invisible_in_radar&lt;/span&gt;&lt;span style=&quot;font-size:12.0pt;font-family:Consolas;mso-ascii-font-family:Consolas;&lt;br/&gt;mso-fareast-font-family:等线;mso-bidi-font-family:Consolas;color:black;&lt;br/&gt;mso-color-index:1;mso-font-kerning:1.0pt;language:en-US;mso-style-textfill-type:&lt;br/&gt;solid;mso-style-textfill-fill-themecolor:text1;mso-style-textfill-fill-color:&lt;br/&gt;black;mso-style-textfill-fill-alpha:100.0%&quot;&gt;_&lt;/span&gt;&lt;span style=&quot;font-size:&lt;br/&gt;12.0pt;font-family:微软雅黑;mso-ascii-font-family:Consolas;mso-fareast-font-family:&lt;br/&gt;微软雅黑;mso-bidi-font-family:+mn-cs;mso-bidi-theme-font:minor-bidi;color:black;&lt;br/&gt;mso-color-index:1;mso-font-kerning:1.0pt;language:zh-CN;mso-style-textfill-type:&lt;br/&gt;solid;mso-style-textfill-fill-themecolor:text1;mso-style-textfill-fill-color:&lt;br/&gt;black;mso-style-textfill-fill-alpha:100.0%&quot;&gt;、&lt;/span&gt;&lt;span style=&quot;font-size:&lt;br/&gt;12.0pt;font-family:Consolas;mso-ascii-font-family:Consolas;mso-fareast-font-family:&lt;br/&gt;等线;mso-bidi-font-family:Consolas;color:black;mso-color-index:1;mso-font-kerning:&lt;br/&gt;1.0pt;language:en-US;mso-style-textfill-type:solid;mso-style-textfill-fill-themecolor:&lt;br/&gt;text1;mso-style-textfill-fill-color:black;mso-style-textfill-fill-alpha:100.0%&quot;&gt;&lt;br/&gt;&lt;/span&gt;&lt;span style=&quot;font-size:12.0pt;font-family:Consolas;mso-ascii-font-family:&lt;br/&gt;Consolas;mso-fareast-font-family:等线;mso-bidi-font-family:Consolas;color:black;&lt;br/&gt;mso-color-index:1;mso-font-kerning:1.0pt;language:en-US;mso-style-textfill-type:&lt;br/&gt;solid;mso-style-textfill-fill-themecolor:text1;mso-style-textfill-fill-color:&lt;br/&gt;black;mso-style-textfill-fill-alpha:100.0%&quot;&gt;radar_objects&lt;/span&gt;&lt;span style=&quot;font-size:12.0pt;font-family:Consolas;mso-ascii-font-family:Consolas;&lt;br/&gt;mso-fareast-font-family:等线;mso-bidi-font-family:Consolas;color:black;&lt;br/&gt;mso-color-index:1;mso-font-kerning:1.0pt;language:en-US;mso-style-textfill-type:&lt;br/&gt;solid;mso-style-textfill-fill-themecolor:text1;mso-style-textfill-fill-color:&lt;br/&gt;black;mso-style-textfill-fill-alpha:100.0%&quot;&gt;_&lt;/span&gt;&lt;span style=&quot;font-size:&lt;br/&gt;12.0pt;font-family:等线;mso-ascii-font-family:Consolas;mso-fareast-font-family:&lt;br/&gt;等线;mso-bidi-font-family:Consolas;color:black;mso-color-index:1;mso-font-kerning:&lt;br/&gt;1.0pt;language:zh-CN;mso-style-textfill-type:solid;mso-style-textfill-fill-themecolor:&lt;br/&gt;text1;mso-style-textfill-fill-color:black;mso-style-textfill-fill-alpha:100.0%&quot;&gt;、&lt;/span&gt;&lt;span style=&quot;font-size:12.0pt;font-family:Consolas;mso-ascii-font-family:Consolas;&lt;br/&gt;mso-fareast-font-family:等线;mso-bidi-font-family:Consolas;color:black;&lt;br/&gt;mso-color-index:1;mso-font-kerning:1.0pt;language:en-US;mso-style-textfill-type:&lt;br/&gt;solid;mso-style-textfill-fill-themecolor:text1;mso-style-textfill-fill-color:&lt;br/&gt;black;mso-style-textfill-fill-alpha:100.0%&quot;&gt; &lt;/span&gt;&lt;span style=&quot;font-size:&lt;br/&gt;12.0pt;font-family:Consolas;mso-ascii-font-family:Consolas;mso-fareast-font-family:&lt;br/&gt;等线;mso-bidi-font-family:Consolas;color:black;mso-color-index:1;mso-font-kerning:&lt;br/&gt;1.0pt;language:en-US;mso-style-textfill-type:solid;mso-style-textfill-fill-themecolor:&lt;br/&gt;text1;mso-style-textfill-fill-color:black;mso-style-textfill-fill-alpha:100.0%&quot;&gt;camera_objects&lt;/span&gt;&lt;span style=&quot;font-size:12.0pt;font-family:Consolas;mso-ascii-font-family:Consolas;&lt;br/&gt;mso-fareast-font-family:等线;mso-bidi-font-family:Consolas;color:black;&lt;br/&gt;mso-color-index:1;mso-font-kerning:1.0pt;language:en-US;mso-style-textfill-type:&lt;br/&gt;solid;mso-style-textfill-fill-themecolor:text1;mso-style-textfill-fill-color:&lt;br/&gt;black;mso-style-textfill-fill-alpha:100.0%&quot;&gt;_&lt;/span&gt;&lt;/p&gt;&lt;br/&gt;&lt;br/&gt;" style="rounded=1;whiteSpace=wrap;html=1;" vertex="1" parent="1">
          <mxGeometry x="705" y="2130" width="150" height="100" as="geometry" />
        </mxCell>
        <mxCell id="4qVyWYOQ_H-MjT7jH4a1-19" value="" style="edgeStyle=orthogonalEdgeStyle;rounded=0;orthogonalLoop=1;jettySize=auto;html=1;" edge="1" parent="1" source="4qVyWYOQ_H-MjT7jH4a1-14" target="4qVyWYOQ_H-MjT7jH4a1-15">
          <mxGeometry relative="1" as="geometry" />
        </mxCell>
        <mxCell id="4qVyWYOQ_H-MjT7jH4a1-14" value="&lt;span style=&quot;font-size:12.0pt;font-family:微软雅黑;&lt;br/&gt;mso-ascii-font-family:Consolas;mso-fareast-font-family:微软雅黑;mso-bidi-font-family:&lt;br/&gt;+mn-cs;mso-bidi-theme-font:minor-bidi;color:black;mso-color-index:1;mso-font-kerning:&lt;br/&gt;1.0pt;language:zh-CN;mso-style-textfill-type:solid;mso-style-textfill-fill-themecolor:&lt;br/&gt;text1;mso-style-textfill-fill-color:black;mso-style-textfill-fill-alpha:100.0%&quot;&gt;更新航迹对应的传感器观测数据列表&lt;/span&gt;" style="rounded=1;whiteSpace=wrap;html=1;" vertex="1" parent="1">
          <mxGeometry x="649.5" y="2310" width="120" height="60" as="geometry" />
        </mxCell>
        <mxCell id="4qVyWYOQ_H-MjT7jH4a1-21" style="edgeStyle=orthogonalEdgeStyle;rounded=0;orthogonalLoop=1;jettySize=auto;html=1;entryX=1;entryY=0.5;entryDx=0;entryDy=0;" edge="1" parent="1" source="4qVyWYOQ_H-MjT7jH4a1-15" target="4qVyWYOQ_H-MjT7jH4a1-16">
          <mxGeometry relative="1" as="geometry">
            <Array as="points">
              <mxPoint x="910" y="2440" />
            </Array>
          </mxGeometry>
        </mxCell>
        <mxCell id="4qVyWYOQ_H-MjT7jH4a1-15" value="&lt;span style=&quot;font-size:12.0pt;font-family:微软雅黑;&lt;br/&gt;mso-ascii-font-family:Consolas;mso-fareast-font-family:微软雅黑;mso-bidi-font-family:&lt;br/&gt;+mn-cs;mso-bidi-theme-font:minor-bidi;color:black;mso-color-index:1;mso-font-kerning:&lt;br/&gt;1.0pt;language:zh-CN;mso-style-textfill-type:solid;mso-style-textfill-fill-themecolor:&lt;br/&gt;text1;mso-style-textfill-fill-color:black;mso-style-textfill-fill-alpha:100.0%&quot;&gt;判断航迹是否&lt;/span&gt;&lt;span style=&quot;font-size:12.0pt;font-family:Consolas;mso-ascii-font-family:Consolas;&lt;br/&gt;mso-fareast-font-family:微软雅黑;mso-bidi-font-family:+mn-cs;mso-bidi-theme-font:&lt;br/&gt;minor-bidi;color:black;mso-color-index:1;mso-font-kerning:1.0pt;language:en-US;&lt;br/&gt;mso-style-textfill-type:solid;mso-style-textfill-fill-themecolor:text1;&lt;br/&gt;mso-style-textfill-fill-color:black;mso-style-textfill-fill-alpha:100.0%&quot;&gt;Dead&lt;/span&gt;" style="rounded=1;whiteSpace=wrap;html=1;" vertex="1" parent="1">
          <mxGeometry x="814.5" y="2310" width="120" height="60" as="geometry" />
        </mxCell>
        <mxCell id="4qVyWYOQ_H-MjT7jH4a1-16" value="未&lt;span style=&quot;font-size:12.0pt;font-family:Consolas;&lt;br/&gt;mso-ascii-font-family:Consolas;mso-fareast-font-family:微软雅黑;mso-bidi-font-family:&lt;br/&gt;+mn-cs;mso-bidi-theme-font:minor-bidi;color:black;mso-color-index:1;mso-font-kerning:&lt;br/&gt;1.0pt;language:en-US;mso-style-textfill-type:solid;mso-style-textfill-fill-themecolor:&lt;br/&gt;text1;mso-style-textfill-fill-color:black;mso-style-textfill-fill-alpha:100.0%&quot;&gt;Dead航迹进行匀速运动位置补偿&lt;/span&gt;" style="rounded=1;whiteSpace=wrap;html=1;" vertex="1" parent="1">
          <mxGeometry x="649.5" y="2410" width="120" height="60" as="geometry" />
        </mxCell>
        <mxCell id="4qVyWYOQ_H-MjT7jH4a1-22" value="更新历史航迹" style="text;html=1;strokeColor=none;fillColor=none;align=center;verticalAlign=middle;whiteSpace=wrap;rounded=0;" vertex="1" parent="1">
          <mxGeometry x="739.5" y="2270" width="80" height="30" as="geometry" />
        </mxCell>
        <mxCell id="4qVyWYOQ_H-MjT7jH4a1-27" value="结束" style="rounded=1;whiteSpace=wrap;html=1;" vertex="1" parent="1">
          <mxGeometry x="720" y="2520" width="120" height="60" as="geometry" />
        </mxCell>
        <mxCell id="4qVyWYOQ_H-MjT7jH4a1-44" style="edgeStyle=orthogonalEdgeStyle;rounded=0;orthogonalLoop=1;jettySize=auto;html=1;entryX=0.5;entryY=0;entryDx=0;entryDy=0;" edge="1" parent="1" source="4qVyWYOQ_H-MjT7jH4a1-34" target="4qVyWYOQ_H-MjT7jH4a1-35">
          <mxGeometry relative="1" as="geometry" />
        </mxCell>
        <mxCell id="4qVyWYOQ_H-MjT7jH4a1-34" value="开始" style="rounded=1;whiteSpace=wrap;html=1;" vertex="1" parent="1">
          <mxGeometry x="1400" y="1530" width="120" height="60" as="geometry" />
        </mxCell>
        <mxCell id="4qVyWYOQ_H-MjT7jH4a1-38" style="edgeStyle=orthogonalEdgeStyle;rounded=0;orthogonalLoop=1;jettySize=auto;html=1;entryX=0.5;entryY=0;entryDx=0;entryDy=0;" edge="1" parent="1" source="4qVyWYOQ_H-MjT7jH4a1-35" target="4qVyWYOQ_H-MjT7jH4a1-37">
          <mxGeometry relative="1" as="geometry" />
        </mxCell>
        <mxCell id="4qVyWYOQ_H-MjT7jH4a1-35" value="获取航迹列表" style="rounded=0;whiteSpace=wrap;html=1;" vertex="1" parent="1">
          <mxGeometry x="1400" y="1630" width="120" height="60" as="geometry" />
        </mxCell>
        <mxCell id="4qVyWYOQ_H-MjT7jH4a1-45" style="edgeStyle=orthogonalEdgeStyle;rounded=0;orthogonalLoop=1;jettySize=auto;html=1;entryX=0.5;entryY=0;entryDx=0;entryDy=0;" edge="1" parent="1" source="4qVyWYOQ_H-MjT7jH4a1-37" target="4qVyWYOQ_H-MjT7jH4a1-40">
          <mxGeometry relative="1" as="geometry" />
        </mxCell>
        <mxCell id="4qVyWYOQ_H-MjT7jH4a1-37" value="航迹发布?" style="rhombus;whiteSpace=wrap;html=1;" vertex="1" parent="1">
          <mxGeometry x="1400" y="1720" width="120" height="80" as="geometry" />
        </mxCell>
        <mxCell id="4qVyWYOQ_H-MjT7jH4a1-46" style="edgeStyle=orthogonalEdgeStyle;rounded=0;orthogonalLoop=1;jettySize=auto;html=1;" edge="1" parent="1" source="4qVyWYOQ_H-MjT7jH4a1-40" target="4qVyWYOQ_H-MjT7jH4a1-41">
          <mxGeometry relative="1" as="geometry" />
        </mxCell>
        <mxCell id="4qVyWYOQ_H-MjT7jH4a1-40" value="赋值当前帧时间戳" style="rounded=0;whiteSpace=wrap;html=1;" vertex="1" parent="1">
          <mxGeometry x="1400" y="1830" width="120" height="60" as="geometry" />
        </mxCell>
        <mxCell id="4qVyWYOQ_H-MjT7jH4a1-47" style="edgeStyle=orthogonalEdgeStyle;rounded=0;orthogonalLoop=1;jettySize=auto;html=1;entryX=0.5;entryY=0;entryDx=0;entryDy=0;" edge="1" parent="1" source="4qVyWYOQ_H-MjT7jH4a1-41" target="4qVyWYOQ_H-MjT7jH4a1-42">
          <mxGeometry relative="1" as="geometry" />
        </mxCell>
        <mxCell id="4qVyWYOQ_H-MjT7jH4a1-41" value="赋值跟踪时长" style="rounded=0;whiteSpace=wrap;html=1;" vertex="1" parent="1">
          <mxGeometry x="1400" y="1930" width="120" height="60" as="geometry" />
        </mxCell>
        <mxCell id="4qVyWYOQ_H-MjT7jH4a1-49" style="edgeStyle=orthogonalEdgeStyle;rounded=0;orthogonalLoop=1;jettySize=auto;html=1;entryX=0.5;entryY=0;entryDx=0;entryDy=0;" edge="1" parent="1" source="4qVyWYOQ_H-MjT7jH4a1-42" target="4qVyWYOQ_H-MjT7jH4a1-43">
          <mxGeometry relative="1" as="geometry" />
        </mxCell>
        <mxCell id="4qVyWYOQ_H-MjT7jH4a1-42" value="数据发布" style="rounded=0;whiteSpace=wrap;html=1;" vertex="1" parent="1">
          <mxGeometry x="1400" y="2030" width="120" height="60" as="geometry" />
        </mxCell>
        <mxCell id="4qVyWYOQ_H-MjT7jH4a1-43" value="结束" style="rounded=1;whiteSpace=wrap;html=1;" vertex="1" parent="1">
          <mxGeometry x="1400" y="2120" width="120" height="60" as="geometry" />
        </mxCell>
        <mxCell id="4qVyWYOQ_H-MjT7jH4a1-54" style="edgeStyle=orthogonalEdgeStyle;rounded=0;orthogonalLoop=1;jettySize=auto;html=1;entryX=0.5;entryY=0;entryDx=0;entryDy=0;" edge="1" parent="1" source="4qVyWYOQ_H-MjT7jH4a1-50" target="4qVyWYOQ_H-MjT7jH4a1-51">
          <mxGeometry relative="1" as="geometry">
            <Array as="points">
              <mxPoint x="1810" y="1610" />
              <mxPoint x="1680" y="1610" />
            </Array>
          </mxGeometry>
        </mxCell>
        <mxCell id="4qVyWYOQ_H-MjT7jH4a1-65" style="edgeStyle=orthogonalEdgeStyle;rounded=0;orthogonalLoop=1;jettySize=auto;html=1;entryX=0.565;entryY=-0.024;entryDx=0;entryDy=0;entryPerimeter=0;" edge="1" parent="1" source="4qVyWYOQ_H-MjT7jH4a1-50" target="4qVyWYOQ_H-MjT7jH4a1-64">
          <mxGeometry relative="1" as="geometry">
            <Array as="points">
              <mxPoint x="1810" y="1610" />
              <mxPoint x="1958" y="1610" />
            </Array>
          </mxGeometry>
        </mxCell>
        <mxCell id="4qVyWYOQ_H-MjT7jH4a1-66" style="edgeStyle=orthogonalEdgeStyle;rounded=0;orthogonalLoop=1;jettySize=auto;html=1;entryX=0.5;entryY=0;entryDx=0;entryDy=0;" edge="1" parent="1" source="4qVyWYOQ_H-MjT7jH4a1-50" target="4qVyWYOQ_H-MjT7jH4a1-63">
          <mxGeometry relative="1" as="geometry" />
        </mxCell>
        <mxCell id="4qVyWYOQ_H-MjT7jH4a1-50" value="开始" style="rounded=1;whiteSpace=wrap;html=1;" vertex="1" parent="1">
          <mxGeometry x="1750" y="1530" width="120" height="60" as="geometry" />
        </mxCell>
        <mxCell id="4qVyWYOQ_H-MjT7jH4a1-57" style="edgeStyle=orthogonalEdgeStyle;rounded=0;orthogonalLoop=1;jettySize=auto;html=1;entryX=0.5;entryY=0;entryDx=0;entryDy=0;jumpStyle=arc;" edge="1" parent="1" source="4qVyWYOQ_H-MjT7jH4a1-51" target="4qVyWYOQ_H-MjT7jH4a1-56">
          <mxGeometry relative="1" as="geometry">
            <mxPoint x="1780" y="1750" as="targetPoint" />
            <Array as="points">
              <mxPoint x="1680" y="1720" />
              <mxPoint x="1810" y="1720" />
            </Array>
          </mxGeometry>
        </mxCell>
        <mxCell id="4qVyWYOQ_H-MjT7jH4a1-51" value="接收航迹目标数据" style="rounded=0;whiteSpace=wrap;html=1;" vertex="1" parent="1">
          <mxGeometry x="1620" y="1630" width="120" height="60" as="geometry" />
        </mxCell>
        <mxCell id="4qVyWYOQ_H-MjT7jH4a1-58" style="edgeStyle=orthogonalEdgeStyle;rounded=0;orthogonalLoop=1;jettySize=auto;html=1;entryX=0.5;entryY=0;entryDx=0;entryDy=0;jumpStyle=arc;" edge="1" parent="1" target="4qVyWYOQ_H-MjT7jH4a1-56">
          <mxGeometry relative="1" as="geometry">
            <mxPoint x="1780" y="1720" as="targetPoint" />
            <mxPoint x="1830" y="1690" as="sourcePoint" />
            <Array as="points">
              <mxPoint x="1810" y="1690" />
            </Array>
          </mxGeometry>
        </mxCell>
        <mxCell id="4qVyWYOQ_H-MjT7jH4a1-68" style="edgeStyle=orthogonalEdgeStyle;rounded=0;jumpStyle=arc;orthogonalLoop=1;jettySize=auto;html=1;entryX=0.5;entryY=0;entryDx=0;entryDy=0;" edge="1" parent="1" source="4qVyWYOQ_H-MjT7jH4a1-56" target="4qVyWYOQ_H-MjT7jH4a1-60">
          <mxGeometry relative="1" as="geometry" />
        </mxCell>
        <mxCell id="4qVyWYOQ_H-MjT7jH4a1-56" value="判定目标所属车道" style="rounded=0;whiteSpace=wrap;html=1;" vertex="1" parent="1">
          <mxGeometry x="1750" y="1750" width="120" height="60" as="geometry" />
        </mxCell>
        <mxCell id="4qVyWYOQ_H-MjT7jH4a1-71" style="edgeStyle=orthogonalEdgeStyle;rounded=0;jumpStyle=arc;orthogonalLoop=1;jettySize=auto;html=1;entryX=0.5;entryY=0;entryDx=0;entryDy=0;" edge="1" parent="1" source="4qVyWYOQ_H-MjT7jH4a1-60" target="4qVyWYOQ_H-MjT7jH4a1-69">
          <mxGeometry relative="1" as="geometry" />
        </mxCell>
        <mxCell id="4qVyWYOQ_H-MjT7jH4a1-60" value="目标危险性排序" style="rounded=0;whiteSpace=wrap;html=1;" vertex="1" parent="1">
          <mxGeometry x="1750" y="1840" width="120" height="60" as="geometry" />
        </mxCell>
        <mxCell id="4qVyWYOQ_H-MjT7jH4a1-63" value="接收车道数据" style="rounded=0;whiteSpace=wrap;html=1;" vertex="1" parent="1">
          <mxGeometry x="1750" y="1630" width="120" height="60" as="geometry" />
        </mxCell>
        <mxCell id="4qVyWYOQ_H-MjT7jH4a1-67" style="edgeStyle=orthogonalEdgeStyle;rounded=0;orthogonalLoop=1;jettySize=auto;html=1;jumpStyle=arc;" edge="1" parent="1" source="4qVyWYOQ_H-MjT7jH4a1-64">
          <mxGeometry relative="1" as="geometry">
            <mxPoint x="1810" y="1750" as="targetPoint" />
            <Array as="points">
              <mxPoint x="1950" y="1720" />
              <mxPoint x="1810" y="1720" />
            </Array>
          </mxGeometry>
        </mxCell>
        <mxCell id="4qVyWYOQ_H-MjT7jH4a1-64" value="接收自车信息" style="rounded=0;whiteSpace=wrap;html=1;" vertex="1" parent="1">
          <mxGeometry x="1890" y="1630" width="120" height="60" as="geometry" />
        </mxCell>
        <mxCell id="4qVyWYOQ_H-MjT7jH4a1-72" style="edgeStyle=orthogonalEdgeStyle;rounded=0;jumpStyle=arc;orthogonalLoop=1;jettySize=auto;html=1;entryX=0.5;entryY=0;entryDx=0;entryDy=0;" edge="1" parent="1" source="4qVyWYOQ_H-MjT7jH4a1-69" target="4qVyWYOQ_H-MjT7jH4a1-70">
          <mxGeometry relative="1" as="geometry" />
        </mxCell>
        <mxCell id="4qVyWYOQ_H-MjT7jH4a1-69" value="CIPV" style="rounded=0;whiteSpace=wrap;html=1;" vertex="1" parent="1">
          <mxGeometry x="1750" y="1930" width="120" height="60" as="geometry" />
        </mxCell>
        <mxCell id="4qVyWYOQ_H-MjT7jH4a1-74" style="edgeStyle=orthogonalEdgeStyle;rounded=0;jumpStyle=arc;orthogonalLoop=1;jettySize=auto;html=1;entryX=0.5;entryY=0;entryDx=0;entryDy=0;" edge="1" parent="1" source="4qVyWYOQ_H-MjT7jH4a1-70" target="4qVyWYOQ_H-MjT7jH4a1-73">
          <mxGeometry relative="1" as="geometry" />
        </mxCell>
        <mxCell id="4qVyWYOQ_H-MjT7jH4a1-70" value="过滤输出" style="rounded=0;whiteSpace=wrap;html=1;" vertex="1" parent="1">
          <mxGeometry x="1750" y="2020" width="120" height="60" as="geometry" />
        </mxCell>
        <mxCell id="4qVyWYOQ_H-MjT7jH4a1-73" value="结束" style="rounded=1;whiteSpace=wrap;html=1;" vertex="1" parent="1">
          <mxGeometry x="1750" y="2110" width="120" height="60" as="geometry" />
        </mxCell>
        <mxCell id="4qVyWYOQ_H-MjT7jH4a1-89" style="edgeStyle=orthogonalEdgeStyle;rounded=0;jumpStyle=arc;orthogonalLoop=1;jettySize=auto;html=1;" edge="1" parent="1" source="4qVyWYOQ_H-MjT7jH4a1-75" target="4qVyWYOQ_H-MjT7jH4a1-87">
          <mxGeometry relative="1" as="geometry" />
        </mxCell>
        <mxCell id="4qVyWYOQ_H-MjT7jH4a1-75" value="开始" style="rounded=1;whiteSpace=wrap;html=1;" vertex="1" parent="1">
          <mxGeometry x="2250" y="1360" width="120" height="60" as="geometry" />
        </mxCell>
        <mxCell id="4qVyWYOQ_H-MjT7jH4a1-76" value="接收航迹目标数据" style="rounded=0;whiteSpace=wrap;html=1;" vertex="1" parent="1">
          <mxGeometry x="1630" y="1640" width="120" height="60" as="geometry" />
        </mxCell>
        <mxCell id="4qVyWYOQ_H-MjT7jH4a1-80" style="edgeStyle=orthogonalEdgeStyle;rounded=0;jumpStyle=arc;orthogonalLoop=1;jettySize=auto;html=1;entryX=0.5;entryY=0;entryDx=0;entryDy=0;" edge="1" parent="1" source="4qVyWYOQ_H-MjT7jH4a1-77" target="4qVyWYOQ_H-MjT7jH4a1-78">
          <mxGeometry relative="1" as="geometry" />
        </mxCell>
        <mxCell id="4qVyWYOQ_H-MjT7jH4a1-77" value="判定目标位置是否车道左车道线直线LLine的右边" style="rounded=0;whiteSpace=wrap;html=1;" vertex="1" parent="1">
          <mxGeometry x="2250" y="1620" width="120" height="60" as="geometry" />
        </mxCell>
        <mxCell id="4qVyWYOQ_H-MjT7jH4a1-81" style="edgeStyle=orthogonalEdgeStyle;rounded=0;jumpStyle=arc;orthogonalLoop=1;jettySize=auto;html=1;entryX=0.5;entryY=0;entryDx=0;entryDy=0;" edge="1" parent="1" source="4qVyWYOQ_H-MjT7jH4a1-78" target="4qVyWYOQ_H-MjT7jH4a1-79">
          <mxGeometry relative="1" as="geometry" />
        </mxCell>
        <mxCell id="4qVyWYOQ_H-MjT7jH4a1-78" value="判定目标位置是否车道右车道线直线RLine的右边" style="rounded=0;whiteSpace=wrap;html=1;" vertex="1" parent="1">
          <mxGeometry x="2250" y="1720" width="120" height="60" as="geometry" />
        </mxCell>
        <mxCell id="4qVyWYOQ_H-MjT7jH4a1-83" style="edgeStyle=orthogonalEdgeStyle;rounded=0;jumpStyle=arc;orthogonalLoop=1;jettySize=auto;html=1;entryX=0.5;entryY=0;entryDx=0;entryDy=0;" edge="1" parent="1" source="4qVyWYOQ_H-MjT7jH4a1-79" target="4qVyWYOQ_H-MjT7jH4a1-82">
          <mxGeometry relative="1" as="geometry" />
        </mxCell>
        <mxCell id="4qVyWYOQ_H-MjT7jH4a1-79" value="目标在左车道线RLine右边&amp;amp;&amp;amp;目标在右车道线RLine左边" style="rhombus;whiteSpace=wrap;html=1;" vertex="1" parent="1">
          <mxGeometry x="2245" y="1810" width="130" height="100" as="geometry" />
        </mxCell>
        <mxCell id="4qVyWYOQ_H-MjT7jH4a1-85" style="edgeStyle=orthogonalEdgeStyle;rounded=0;jumpStyle=arc;orthogonalLoop=1;jettySize=auto;html=1;" edge="1" parent="1" source="4qVyWYOQ_H-MjT7jH4a1-82" target="4qVyWYOQ_H-MjT7jH4a1-84">
          <mxGeometry relative="1" as="geometry" />
        </mxCell>
        <mxCell id="4qVyWYOQ_H-MjT7jH4a1-82" value="目标打车道标签" style="rounded=0;whiteSpace=wrap;html=1;" vertex="1" parent="1">
          <mxGeometry x="2250" y="1940" width="120" height="60" as="geometry" />
        </mxCell>
        <mxCell id="4qVyWYOQ_H-MjT7jH4a1-84" value="结束" style="rounded=1;whiteSpace=wrap;html=1;" vertex="1" parent="1">
          <mxGeometry x="2250" y="2040" width="120" height="60" as="geometry" />
        </mxCell>
        <mxCell id="4qVyWYOQ_H-MjT7jH4a1-90" style="edgeStyle=orthogonalEdgeStyle;rounded=0;jumpStyle=arc;orthogonalLoop=1;jettySize=auto;html=1;entryX=0.5;entryY=0;entryDx=0;entryDy=0;" edge="1" parent="1" source="4qVyWYOQ_H-MjT7jH4a1-87" target="4qVyWYOQ_H-MjT7jH4a1-88">
          <mxGeometry relative="1" as="geometry" />
        </mxCell>
        <mxCell id="4qVyWYOQ_H-MjT7jH4a1-87" value="使用该车道的左车道线的起点和终点，构造左车道线直线LLine" style="rounded=0;whiteSpace=wrap;html=1;" vertex="1" parent="1">
          <mxGeometry x="2250" y="1440" width="120" height="60" as="geometry" />
        </mxCell>
        <mxCell id="4qVyWYOQ_H-MjT7jH4a1-91" style="edgeStyle=orthogonalEdgeStyle;rounded=0;jumpStyle=arc;orthogonalLoop=1;jettySize=auto;html=1;" edge="1" parent="1" source="4qVyWYOQ_H-MjT7jH4a1-88" target="4qVyWYOQ_H-MjT7jH4a1-77">
          <mxGeometry relative="1" as="geometry" />
        </mxCell>
        <mxCell id="4qVyWYOQ_H-MjT7jH4a1-88" value="使用该车道的右车道线的起点和终点，构造左车道线直线RLine" style="rounded=0;whiteSpace=wrap;html=1;" vertex="1" parent="1">
          <mxGeometry x="2250" y="1530" width="120" height="60" as="geometry" />
        </mxCell>
      </root>
    </mxGraphModel>
  </diagram>
</mxfile>
